/* XPM */
static char *result[] = {
/* columns rows colors chars-per-pixel */
"64 64 191 2 ",
"   c #000000",
".  c #050108",
"X  c #0C0B0E",
"o  c #0A0508",
"O  c #170509",
"+  c #0E0A11",
"@  c #0E0114",
"#  c #110316",
"$  c #110B14",
"%  c #14051A",
"&  c #160A1B",
"*  c #190A1E",
"=  c #190C12",
"-  c #141116",
";  c #141119",
":  c #19181B",
">  c #2B0C0D",
",  c #250A0A",
"<  c #340F0E",
"1  c #290C15",
"2  c #281318",
"3  c #371010",
"4  c #321919",
"5  c #391419",
"6  c #330F10",
"7  c #1D201F",
"8  c #1C0B21",
"9  c #1D1723",
"0  c #290E26",
"q  c #210E2A",
"w  c #2B0E29",
"e  c #230720",
"r  c #2E1522",
"t  c #27142D",
"y  c #331623",
"u  c #2A0F34",
"i  c #2B1534",
"p  c #2C1337",
"a  c #34133B",
"s  c #232525",
"d  c #232926",
"f  c #242328",
"g  c #2A2C2E",
"h  c #272C2A",
"j  c #2E2836",
"k  c #302838",
"l  c #302637",
"z  c #333434",
"x  c #36343C",
"c  c #38363F",
"v  c #3B3B3B",
"b  c #363937",
"n  c #2E3036",
"m  c #5E1A1A",
"M  c #44121F",
"N  c #601B1B",
"B  c #471A23",
"V  c #58192C",
"C  c #671E34",
"Z  c #4E3232",
"A  c #523A3A",
"S  c #632E2E",
"D  c #7D2323",
"F  c #3D1A4D",
"G  c #391843",
"H  c #3B3942",
"J  c #3C3342",
"K  c #411B51",
"L  c #4A1E5F",
"P  c #413946",
"I  c #442154",
"U  c #4B285B",
"Y  c #4D3E54",
"T  c #4C1E60",
"R  c #4E2062",
"E  c #512165",
"W  c #55236A",
"Q  c #5B246C",
"!  c #512C61",
"~  c #5A2670",
"^  c #61256E",
"/  c #652673",
"(  c #63297C",
")  c #672875",
"_  c #7F2A7D",
"`  c #75276D",
"'  c #48454B",
"]  c #48464A",
"[  c #4E4950",
"{  c #4E4055",
"}  c #4E5354",
"|  c #53545C",
" . c #535558",
".. c #5C5D62",
"X. c #656A6A",
"o. c #6B6C6D",
"O. c #65636A",
"+. c #696D73",
"@. c #666B70",
"#. c #6B7276",
"$. c #79767B",
"%. c #72767D",
"&. c #842626",
"*. c #872A2B",
"=. c #883838",
"-. c #AB3131",
";. c #BB3535",
":. c #B63637",
">. c #D83E3E",
",. c #B23E40",
"<. c #812C7E",
"1. c #8A4747",
"2. c #AD5757",
"3. c #BC5353",
"4. c #B04E4F",
"5. c #D85151",
"6. c #CE4F4F",
"7. c #E54242",
"8. c #EB4444",
"9. c #E54C4C",
"0. c #E94C4C",
"q. c #EA5A5A",
"w. c #F04949",
"e. c #EF6A6A",
"r. c #662B81",
"t. c #6A2C84",
"y. c #6D2D89",
"u. c #742E8A",
"i. c #792F8C",
"p. c #722C84",
"a. c #7C308E",
"s. c #7E3192",
"d. c #777A82",
"f. c #842D82",
"g. c #892E88",
"h. c #933088",
"j. c #8A3395",
"k. c #8E3499",
"l. c #94359A",
"z. c #99369D",
"x. c #8D308C",
"c. c #9D37A0",
"v. c #9E38A2",
"b. c #A339A4",
"n. c #AC3BA8",
"m. c #A93AA7",
"M. c #B33CAD",
"N. c #BD3FB3",
"B. c #B63DB0",
"V. c #C03FB4",
"C. c #C340B6",
"Z. c #C341B8",
"A. c #858C8F",
"S. c #858E92",
"D. c #898F96",
"F. c #899095",
"G. c #8C939A",
"H. c #999292",
"J. c #9A999A",
"K. c #94959A",
"L. c #959CA3",
"P. c #9D9DA2",
"I. c #A09AA2",
"U. c #9EA4A8",
"Y. c #9DA5A7",
"T. c #A1A7AC",
"R. c #A3A9AD",
"E. c #A7ADB2",
"W. c #A9B2B8",
"Q. c #BABABD",
"!. c #B7BEC3",
"~. c #BDC2C5",
"^. c #C4C3C5",
"/. c #CBCCCC",
"(. c #C6C7C9",
"). c #C6CED3",
"_. c #CFCED0",
"`. c #C9D1D6",
"'. c #CCD4D9",
"]. c #D3D4D4",
"[. c #D6DADD",
"{. c #D6D9DB",
"}. c #D6DCE0",
"|. c #E4E5E7",
" X c #E7E8EA",
".X c #EDEFF1",
"XX c #EEF1F2",
"oX c #F2F4F5",
"OX c #FFFFFF",
"+X c #F5F7F9",
"@X c None",
/* pixels */
"@X@X@X@X@X@X@X@X@X@X@X@X@X@X@X@X  . $ X         @X@X@X@X@X@X@X@X@X@X@X@X@X@X@X@X@X@X@X@X@X@X@X@X@X@X        @X@X@X@X@X@X@X@X@X@X",
"@X@X@X@X@X@X@X@X@X@X@X@X@X@X@X@X  o 9 i w t 8 % @X@X@X@X@X@X@X@X@X@X@X@X@X@X@X@X@X@X@X@X@X@X@X@X@X@X* * 8 8 @X@X@X@X@X@X@X@X@X@X",
"@X@X@X@X@X@X@X@X@X@X@X@X@X@X@X@X  & F / f.f.^ F %           @X@X@X@X@X@X@X@X@X@X@X@X@X@X          * F E R K *   @X@X@X@X@X@X@X@X",
"@X@X@X@X@X@X@X@X@X@X@X@X@X@X@X@X  8 Q k.m.b.l./ p & * * * * @X@X@X@X@X@X@X@X@X@X@X@X@X@X* * * * * p Q r.Q F $   @X@X@X@X@X@X@X@X",
"@X@X@X@X@X@X@X@X@X@X@X@X@X@X@X@X  0 f.m.j.j.b.z.) R R R R F &       @X@X@X@X          % F E T U R W ( Q p & .   @X@X@X@X@X@X@X@X",
"@X@X@X@X@X@X@X@X@X@X@X@X@X@X@X@X  0 f.b.j.j.b.c.a.t.r.t.y.~ G 0 w 0 @X@X@X@X* * * * * p W u.s.i.~ R E F &       @X@X@X@X@X@X@X@X",
"@X@X@X@X@X@X@X@X@X@X@X@X@X@X@X@X  8 Q l.b.b.j.u.y.t.t.r.r.p.f.h.h.` r     & F R T T T W r.s.m.x.K & & * @X@X@X@X@X@X@X@X@X@X@X@X",
"@X@X@X@X@X@X@X@X@X@X@X@X@X@X@X@X  % F / l.c.u.r.( t.a.a.a.l.M.Z.N.x.a % & p W y.y.y.y.r.W Q <.` 0       @X@X@X@X@X@X@X@X@X@X@X@X",
"@X@X@X@X@X@X@X@X@X@X@X@X@X@X@X@X@X@X% p / a.t.r.( u.z.n.n.M.V.B.l.t.Q R T W ( y.y.y.y.~ p * w w @X@X@X@X@X@X@X@X@X@X@X@X@X@X@X@X",
"@X@X@X@X@X@X@X@X@X@X@X@X@X@X@X@X@X@X  * U y.i.s.i.k.M.N.M.n.n.z.u.r.t.t.y.y.t.~ W T T F &       @X@X@X@X@X@X@X@X@X@X@X@X@X@X@X@X",
"@X@X@X@X@X@X@X@X@X@X@X@X@X@X@X@X@X@X  8 L u.c.n.n.M.N.M.l.i.i.i.t.t.t.t.t.t.y.~ u % % % @X@X@X@X@X@X@X@X@X@X@X@X@X@X@X@X@X@X@X@X",
"@X@X@X@X@X@X@X@X@X@X@X@X@X@X@X@X@X@X  8 Q l.M.V.V.N.M.z.u.r.r.r.t.t.t.( W T T F k h h s @X@X@X@X@X@X@X@X@X@X@X@X@X@X@X@X@X@X@X@X",
"@X@X@X@X@X@X@X@X@X@X@X@X@X@X@X@X@X@X  0 _ B.V.V.V.M.l.i.t.r.r.r.t.t.t.W u % # l +.D.F.#.s       @X@X@X@X@X@X@X@X@X@X@X@X@X@X@X@X",
"@X@X@X@X@X@X@X@X@X@X@X@X@X@X@X@X@X@X  w h.V.B.n.n.z.u.( t.t.t.( W T T I k d d } R.'.'.E...b b b @X@X@X@X@X@X@X@X@X@X@X@X@X@X@X@X",
"@X@X@X@X@X@X@X@X@X@X@X@X@X@X@X@X@X@X  w h.B.l.i.i.u.t.t.t.y.y.W u # # l +.S.S.Y.[.oXoX|./.~.~.H.b   @X@X@X@X@X@X@X@X@X@X@X@X@X@X",
"@X@X@X@X@X@X@X@X@X@X@X@X@X@X@X@X@X@X  0 _ v.i.t.i.i.p.( E T T I l d s } T.'.`.}.oXOXOXOXOXOXOX^.b   @X@X@X@X@X@X@X@X@X@X@X@X@X@X",
"@X@X@X@X@X@X@X@X@X@X@X@X@X@X@X@X      8 Q i.y.i.b.b.s.W u # # l +.S.S.U.{.oXoXoXOXOXOXOXOXOXOX~.v   @X@X@X@X@X@X@X@X@X@X@X@X@X@X",
"@X@X@X@X@X@X@X@X@X@X@X@X@X@X@X@X* * 8 p W t.t.p.g.p.Q K l s s } R.'.`.}.+XOXOXOXOXOXOXOXOXOXOX/.o.z @X@X@X@X@X@X@X@X@X@X@X@X@X@X",
"@X@X@X@X@X@X@X@X@X@X@X@X      & F E R W ( y.y.Q G 1 % j +.S.A.U.{.oXoXoXOXOXOXOXOXOXOXOXOXOXOXoX].J.b   @X@X@X@X@X@X@X@X@X@X@X@X",
"@X@X@X@X@X@X@X@X@X@X@X@X* * * p W y.y.( W T T I j d d } R.'.`.}.oXOXOXoX].^.^.].oXOXOXOXOXOXOXOXOX(.v   @X@X@X@X@X@X@X@X@X@X@X@X",
"@X@X@X@X@X@X@X@X@X@X  * K E E W r.y.y.W p % # j +.A.A.Y.{.oXoXoXOXOXOX].$.' ' $._.OXOXOXOXOXOXOXOX(.v   @X@X@X@X@X@X@X@X@X@X@X@X",
"@X@X@X@X@X@X@X@X@X@X  * F E E R R R E F # o 7 } R.'.`.}.oXOXOXOXOXOXOX^.' . . ' ^.OXOXOXOXOXOXoX].A.g   @X@X@X@X@X@X@X@X@X@X@X@X",
"@X@X@X@X@X@X@X@X@X@X@X@X8 8 8 8 8 8 8 +   7 X.Y.[.oXXXoXOXOXOXOXOXOXOX^.' . . ' ^.OXOXOXOXOXOX].o.h X   @X@X@X@X@X@X@X@X@X@X@X@X",
"@X@X@X@X@X@X@X@X@X@X@X@X                  g F.'.oXOXOXOXOXOXOXOXOXOXOX].$.' ' $.].OXOXOXOXoX].J.A ,     @X@X@X@X@X@X@X@X@X@X@X@X",
"@X@X@X@X@X@X@X@X@X@X@X@X@X@X@X@X@X@X@X@X  g S.`.oXOXOXOXOXOXOXOXOXOXOXXX].^.^.].oXOXOXOXOX].X.A 2.S 2       @X@X@X@X@X@X@X@X@X@X",
"@X@X@X@X@X@X@X@X@X@X@X@X@X@X@X@X@X@X@X@X  g S.'.XXOXOXOXOXOXOXOXOXOXOXOXOXOXOXOXOXOXOXoX].H.Z m 3.6.S 4 4 4 @X@X@X@X@X@X@X@X@X@X",
"@X@X@X@X@X@X    @X@X@X@X@X@X@X@X@X@X@X@X  g F.'.oXOXOXOXOXOXOXOXOXOXOXOXOXOXOXOXOXOXOX_.X.Z *.;.6.5.3.2.2.1.2       @X@X@X@X@X@X",
"@X@X@X@X@X@X* * @X@X@X@X@X@X@X@X@X@X@X@X  d #.R.|.OXOXOXOXOXOXOXOXOXOXOXOXOXOXOXOXoX_.H.Z m ;.7.7.9.q.e.e.3.S 4 4 4 @X@X@X@X@X@X",
"@X@X@X@X  * F F *           @X@X@X@X@X@X@X@Xd ../.OXOXOXOXOXOXOXOXOXOXOXOXOXOXOXOX/.X.Z *.;.>.7.7.7.9.9.9.5.3.2.2.1.4   @X@X@X@X",
"@X@X@X@X  8 / ) a * 0 0 8 & @X@X@X@X@X@X@X@X  v ^.OXOXOXOXOXOXOXOXOXOXOXOXOXOXOXOX/.X.Z =.;.>.7.7.7.7.7.7.9.q.e.e.4.4   @X@X@X@X",
"@X@X@X@X  0 f.z./ Q <.<.^ F %   X - - - - X o ] (.OXOXOXOXOXOXOXOXOXOXOXOXOXOXOXOXoX].H.A N :.7.7.7.7.7.7.7.0.w.w.4.B X @X@X@X@X",
"@X@X@X@X  0 f.b.k.j.b.b.s.W i 8 t i i i i i t { J.^.~._.oXOXOXOXOXOXOXOXOXOXOXOXOXOXOX^.z , D -.-.-.-.-.-.-.-.-.-.*.B : @X@X@X@X",
": = $ X   8 Q k.b.b.k.a.y.( W E E E W W W W W U J x z o.].OXOXOXOXOXOXOXOXOXOXOXOXOXOX(.b   O 3 3 3 3 3 < 3 < < < 6 @X@X@X@X@X@X",
"& f P v - % T i.b.z.a.( ( t.t.t.t.t.t.t.t.t.y.Q a 1 # J H.^.^.].oXOXOXOXOXOXOXOXoX X].P. .7 o                       @X@X@X@X@X@X",
"$ P J.J.z # L y.a.a.t.r.t.t.t.t.t.t.t.t.r.t.r.p.g.<.Q I H b z o.].OXOXOXOXOXOX+X}.R.O.| d.+.g . @X@X@X@X@X@X@X@X@X@X@X@X@X@X@X@X",
"$ [ ^.~.v % T t.r.( r.t.t.( ( t.i.i.t.t.r.t.i.j.b.b.k./ u @ # J K.^.^._.|.|._.^.!.G.| | Y.P...J @X@X@X@X@X@X@X@X@X@X@X@X@X@X@X@X",
"$ ] R.Y.z % U t.r.r.r.r.( t.r.a.c.c.i.r.r.i.v.b.j.j.b.l./ L L I P v P @.E.E.o...L.W.L.L.W.W.L.d.c $ @X@X@X@X@X@X@X@X@X@X@X@X@X@X",
"$ H d.#.s & T y.a.a.y.r.t.t.r.a.c.c.u.r.r.i.z.b.j.j.b.v.i.y.y.T * . f ..L.L.| ..U.`.`.).).`.`.P.P $ @X@X@X@X@X@X@X@X@X@X@X@X@X@X",
"@X@Xx g X * R a.v.v.a.( t.( ( y.i.i.t.t.r.p.i.j.b.b.j.i.y.t.y.W 8 t @.L.W.E.G.P.{.XXXXXXXXXXoXQ.] $ @X@X@X@X@X@X@X@X@X@X@X@X@X@X",
"@X@X& +   * R a.b.z.a.r.r.r.t.t.r.r.t.t.r.r.( i.z.v.u.r.r.r.W ! { +.W.`.).).).}.oXOXOXOXOXOXOX^.[ $ @X@X@X@X@X@X@X@X@X@X@X@X@X@X",
"@X@X- +   * R u.a.a.y.( t.r.t.r.( t.t.t.t.r.r.y.i.i.y.t.t.W G Y I.]. XoXXX.XXXoXOXOXOXOXOXOXOX(.[ $ @X@X@X@X@X@X@X@X@X@X@X@X@X@X",
"@X@X; - o 8 R t.r.r.( y.a.a.p.( r.t.( t.( t.t.( r.r.r.t.t.E q [ /.OXOXOXOXOXOXOXOXOXOXOXOXOXOX^.[ $ @X@X@X@X@X@X@X@X@X@X@X@X@X@X",
"@X@X@X@XX t W t.r.r.( i.z.z.a.( r.r.t.t.t.( t.t.r.r.t.t.y.E 8 ] (.OXOXOXOXOXOXOXOXOXOXOXOXOXOX^.' $ @X@X@X@X@X@X@X@X@X@X@X@X@X@X",
"@X@X@X@X: i W t.t.t.a.j.b.v.j.i.t.t.( t.t.t.t.( r.r.t.( ~ ! Y $.].OXOXOXOXOXOXOXOXOXOXOXoXoXoXQ.] $ @X@X@X@X@X@X@X@X@X@X@X@X@X@X",
"@X@X@X@X- i W t.t.a.z.b.j.j.b.z.a.r.( r.t.t.( t.r.t.t.W G Y P.{.oXOXOXOXOXOXOXOXOXOXOXoX}.`.'.U.P $ @X@X@X@X@X@X@X@X@X@X@X@X@X@X",
"@X@X@X@X- t I ~ ( a.v.b.j.j.b.z.a.r.t.t.( y.i.i.y.r.t.W 0 ' (.OXOXOXOXOXOXOXoXXX.XXXoX[.R.D.F.%.c $ @X@X@X@X@X@X@X@X@X@X@X@X@X@X",
"@X@X@X@X@X@Xt F ~ u.a.k.z.b.j.a.t.( r.r.( a.z.z.i.r.t.W q [ ).OXOXOXOXOXOXoX[.).).`.'.R...x c x @X@X@X@X@X@X@X@X@X@X@X@X@X@X@X@X",
"@X@X@X@X@X@X- t K R L ^ l.b.a.r.t.t.t.t.t.a.b.b.i.r.~ R J X.~.+XoXXXXXoXXX{.R.D.D.F.F.d.x @ $ $ @X@X@X@X@X@X@X@X@X@X@X@X@X@X@X@X",
"@X@X@X@X@X@X@X@X: * * p / s.u.t.t.t.t.t.t.u.a.s.y.~ G H d.U.~.`.`.`.`.`.'.R...c c H H c @X@X@X@X@X@X@X@X@X@X@X@X@X@X@X@X@X@X@X@X",
"@X@X@X@X@X@X@X@X      & F R R R R R R R R R R R R F 9 n %.L.G.G.D.D.D.G.G.%.x + $ $ $ $ @X@X@X@X@X@X@X@X@X@X@X@X@X@X@X@X@X@X@X@X",
"@X@X@X@X@X@X@X@X@X@X@X@X& * * * * * * 8 8 * * % 8 8 * 9 n H H H H H H H H x @X@X@X@X@X@X@X@X@X@X@X@X@X@X@X@X@X@X@X@X@X@X@X@X@X@X",
"@X@X@X@X@X@X@X@X@X@X@X@X                  . O O   o 4 B B 5 = + $ $ $ $ $ $ @X@X@X@X@X@X@X@X@X@X@X@X@X@X@X@X@X@X@X@X@X@X@X@X@X@X",
"@X@X@X@X@X@X@X@X@X@X@X@X@X@X@X@X@X@X@X@X+ 1 B B O , *.;.:.&.>   @X@X@X@X@X@X@X@X@X@X@X@X@X@X@X@X@X@X@X@X@X@X@X@X@X@X@X@X@X@X@X@X",
"@X@X@X@X@X@X@X@X@X@X@X@X@X@X@X@X@X@X@X@X; y C V O < -.8.8.;.N < @X@X@X@X@X@X@X@X@X@X@X@X@X@X@X@X@X@X@X@X@X@X@X@X@X@X@X@X@X@X@X@X",
"@X@X@X@X@X@X@X@X@X@X@X@X@X@X@X@X@X@X@X@X; y C V O < -.w.8.>.;.&.>   @X@X@X@X@X@X@X@X@X@X@X@X@X@X@X@X@X@X@X@X@X@X@X@X@X@X@X@X@X@X",
"@X@X@X@X@X@X@X@X@X@X@X@X@X@X@X@X@X@X@X@X; r V V 1 5 *.;.>.7.8.:.m > @X@X@X@X@X@X@X@X@X@X@X@X@X@X@X@X@X@X@X@X@X@X@X@X@X@X@X@X@X@X",
"@X@X@X@X@X@X@X@X@X@X@X@X@X@X@X@X@X@X@X@X@X@Xr y V V 5 m :.7.8.>.;.&.>   @X@X@X@X@X@X@X@X@X@X@X@X@X@X@X@X@X@X@X@X@X@X@X@X@X@X@X@X",
"@X@X@X@X@X@X@X@X@X@X@X@X@X@X@X@X@X@X@X@X@X@X; r C V O < -.8.7.7.8.;.N > @X@X@X@X@X@X@X@X@X@X@X@X@X@X@X@X@X@X@X@X@X@X@X@X@X@X@X@X",
"@X@X@X@X@X@X@X@X@X@X@X@X@X@X@X@X@X@X@X@X@X@X; r C V O 3 -.8.8.7.7.>.:.*.<   @X@X@X@X@X@X@X@X@X@X@X@X@X@X@X@X@X@X@X@X@X@X@X@X@X@X",
"@X@X@X@X@X@X@X@X@X@X@X@X@X@X@X@X@X@X@X@X@X@X; r V B = 1 &.-.-.;.>.8.8.-.3   @X@X@X@X@X@X@X@X@X@X@X@X@X@X@X@X@X@X@X@X@X@X@X@X@X@X",
"@X@X@X@X@X@X@X@X@X@X@X@X@X@X@X@X@X@X@X@X@X@X@X@X4 r & - 1 3 3 N ;.w.w.-.<   @X@X@X@X@X@X@X@X@X@X@X@X@X@X@X@X@X@X@X@X@X@X@X@X@X@X",
"@X@X@X@X@X@X@X@X@X@X@X@X@X@X@X@X@X@X@X@X@X@X@X@X$ ; $ X       , &.-.-.&.<   @X@X@X@X@X@X@X@X@X@X@X@X@X@X@X@X@X@X@X@X@X@X@X@X@X@X",
"@X@X@X@X@X@X@X@X@X@X@X@X@X@X@X@X@X@X@X@X@X@X@X@X@X@Xo .       o , 3 3 < @X@X@X@X@X@X@X@X@X@X@X@X@X@X@X@X@X@X@X@X@X@X@X@X@X@X@X@X",
"@X@X@X@X@X@X@X@X@X@X@X@X@X@X@X@X@X@X@X@X@X@X@X@X@X@X                    @X@X@X@X@X@X@X@X@X@X@X@X@X@X@X@X@X@X@X@X@X@X@X@X@X@X@X@X"
};
