/* XPM */
static char *result[] = {
/* columns rows colors chars-per-pixel */
"64 64 236 2 ",
"   c #010101",
".  c #04050B",
"X  c #090909",
"o  c #080B04",
"O  c #140905",
"+  c #0B1509",
"@  c #081508",
"#  c #070B17",
"$  c #071319",
"%  c #13141C",
"&  c #161112",
"*  c #2A160D",
"=  c #2C1C12",
"-  c #2C1811",
";  c #321C12",
":  c #200900",
">  c #0A2416",
",  c #133714",
"<  c #12260E",
"1  c #2C2A18",
"2  c #141622",
"3  c #191A28",
"4  c #191834",
"5  c #05162B",
"6  c #03273B",
"7  c #1F2331",
"8  c #142C2F",
"9  c #212532",
"0  c #282C35",
"q  c #2B3135",
"w  c #393A3A",
"e  c #333637",
"r  c #292B27",
"t  c #4A1B0A",
"y  c #442B19",
"u  c #4F2D1A",
"i  c #4E3521",
"p  c #4D3422",
"a  c #653924",
"s  c #732323",
"d  c #1B4A1B",
"f  c #1E551E",
"g  c #245723",
"h  c #3A5828",
"j  c #374A22",
"k  c #276F30",
"l  c #154C36",
"z  c #5E422C",
"x  c #744D32",
"c  c #6E452D",
"v  c #50753B",
"b  c #1B184C",
"n  c #391A5B",
"m  c #062846",
"M  c #08344B",
"N  c #053B55",
"B  c #262B48",
"V  c #2E3348",
"C  c #353A49",
"Z  c #353A57",
"A  c #302A56",
"S  c #3E1A60",
"D  c #34366B",
"F  c #302B6D",
"G  c #403F5D",
"H  c #431E66",
"J  c #451D6B",
"K  c #491F70",
"L  c #48226D",
"P  c #4C2272",
"I  c #442E7B",
"U  c #52297C",
"Y  c #53357D",
"T  c #154E57",
"R  c #155354",
"E  c #104C54",
"W  c #3F4346",
"Q  c #384A56",
"!  c #24734B",
"~  c #2C7152",
"^  c #3E4366",
"/  c #3B467E",
"(  c #176C66",
")  c #216F64",
"_  c #484B4C",
"`  c #594C49",
"'  c #497A4F",
"]  c #4A5372",
"[  c #4A4C76",
"{  c #675567",
"}  c #8E2D2A",
"|  c #85482C",
" . c #935539",
".. c #8E4533",
"X. c #92623C",
"o. c #AC6336",
"O. c #AC411B",
"+. c #E97036",
"@. c #C95729",
"#. c #911D4D",
"$. c #923A57",
"%. c #AA2A63",
"&. c #B13069",
"*. c #A6285F",
"=. c #8D5C49",
"-. c #BF494B",
";. c #A25E49",
":. c #B57B4D",
">. c #B66F4D",
",. c #BE5C61",
"<. c #9C7362",
"1. c #D35951",
"2. c #E05D4C",
"3. c #CF7550",
"4. c #E97F59",
"5. c #F06F59",
"6. c #C54A6C",
"7. c #CF5070",
"8. c #D8756C",
"9. c #E47C6E",
"0. c #F77E75",
"q. c #EC7076",
"w. c #E7547E",
"e. c #338B36",
"r. c #44953C",
"t. c #368D4D",
"y. c #268668",
"u. c #3E9168",
"i. c #4C9253",
"p. c #56A64D",
"a. c #6AAC56",
"s. c #4F8F64",
"d. c #76B764",
"f. c #61A159",
"g. c #EC853E",
"h. c #81BD67",
"j. c #9B9C6C",
"k. c #D28555",
"l. c #EC865C",
"z. c #D69468",
"x. c #FD8A65",
"c. c #FC9E6B",
"v. c #F79C68",
"b. c #EE8C6C",
"n. c #FCA36C",
"m. c #F7A064",
"M. c #FDAA72",
"N. c #84C162",
"B. c #302C8E",
"V. c #572C83",
"C. c #572C85",
"Z. c #5A3385",
"A. c #573985",
"S. c #633394",
"D. c #643995",
"F. c #723DA7",
"G. c #3D4881",
"H. c #565A85",
"J. c #52538C",
"K. c #664C99",
"L. c #5B6587",
"P. c #5F6799",
"I. c #66748B",
"U. c #616895",
"Y. c #685CA5",
"T. c #774EAA",
"R. c #5E6AA6",
"E. c #6568A2",
"W. c #6774AA",
"Q. c #766FB0",
"!. c #B8778F",
"~. c #834BBC",
"^. c #8147BA",
"/. c #865AB7",
"(. c #846CA9",
"). c #876BB3",
"_. c #816F8A",
"`. c #C65188",
"'. c #E6548F",
"]. c #F376A0",
"[. c #8B55C4",
"{. c #925ACC",
"}. c #975FD2",
"|. c #9767D3",
" X c #9974D1",
".X c #8A69CB",
"XX c #A06BDA",
"oX c #AA79E3",
"OX c #AA77E6",
"+X c #76818A",
"@X c #7F8D99",
"#X c #7C84C1",
"$X c #8F9494",
"%X c #989A96",
"&X c #828C90",
"*X c #939FA8",
"=X c #A28FBC",
"-X c #A8AAAA",
";X c #AEB1B2",
":X c #BD879F",
">X c #D9999B",
",X c #FF9589",
"<X c #FBB191",
"1X c #F487B1",
"2X c #C8A6BA",
"3X c #E6B2A3",
"4X c #848FCA",
"5X c #8D99CB",
"6X c #8B86D4",
"7X c #8995D2",
"8X c #9691DD",
"9X c #A688D0",
"0X c #9AACD2",
"qX c #A6B7D7",
"wX c #ADACD7",
"eX c #AEB3E6",
"rX c #B898E9",
"tX c #C4BEDA",
"yX c #CAAAF3",
"uX c #F6B0DB",
"iX c #B9C8DD",
"pX c #BDCFEB",
"aX c #D2C7DE",
"sX c #FBD7D5",
"dX c #FFD7CD",
"fX c #FFE3D0",
"gX c #D8DAE6",
"hX c #CDD0ED",
"jX c #EBDEFE",
"kX c #E6CEE9",
"lX c #D6E1F3",
"zX c #E8E5E6",
"xX c #F7EBED",
"cX c #F8F3F4",
"vX c #E1EDFD",
"bX c None",
/* pixels */
"bXbXbXbXbXbXbXbXbXbXbXbXbXbXbXbXbXbXbXbXbXbXbXbXbXbXbXbXbXbXbXbXbXbXbXbXbXbXbXbXbXbXbXbXbXbXbXbXbXbXbXbXbXbXbXbXbXbXbXbXbXbXbXbX",
"bXbXbXbXbXbXbXbXbXbXbXbXbXbXbXbXbXbXbXbXbXbXbXbXbXbXbXbXbXbXbXbXbXbXbXbXbXbXbXbXbXbXbXbXbXbXbXbXbXbXbXbXbXbXbXbXbXbXbXbXbXbXbXbX",
"bXbXbXbXbXbXbXbXbXbXbXbXbXbXbXbXbXbXbXbXbXbXbXbXbXbXbXbXbXbXbXbXbXbXbXbXbXbXbXbXbXbXbXbXbXbXbXbXbXbXbXbXbXbXbXbXbXbXbXbXbXbXbXbX",
"bXbXbXbXbXbXbXbXbXbXbXbXbXbXbXbXbXbXbXbXbXbXbXbXbXbXbXbXbXbXbXbXbXbXbXbXbXbXbXbXbXbXbXbXbXbXbXbXbXbXbXbXbXbXbXbXbXbXbXbXbXbXbXbX",
"bXbXbXbXbXbXbXbXbXbXbXbXbXbXbXbXbXbXbXbXbXbXbXbXbXbXbXbXbXbXbXbXbXbXbXbXbXbXbXbXbXbXbXbXbXbXbXbXbXbXbXbXbXbXbXbXbXbXbXbXbXbXbXbX",
"bXbXbXbXbXbXbXbXbXbXbXbXbXbXbXbXbXbXbXbXbXbXbXbXbXbXbXbXbXbXbXbXbXbXbXbXbXbXbXbXbXbXbXbXbXbXbXbXbXbXbXbXbXbXbXbXbXbXbXbXbXbXbXbX",
"bXbXbXbXbXbXbXbXbXbXbXbXbXbXbXbXbXbXbXbXbXbXbXbXbXbXbXbXbXbXbXbXbXbXbXbXbXbXbXbXbXbXbXbXbXbXbXbXbXbXbXbXbXbXbXbXbXbXbXbXbXbXbXbX",
"bXbXbXbXbXbXbXbXbXbXbXbXbXbXbXbXbXbXbXbXbXbXbXbXbXbXbXbXbXbXbXbXbXbXbXbXbXbXbXbXbXbXbXbXbXbXbXbXbXbXbXbXbXbXbXbXbXbXbXbXbXbXbXbX",
"bXbXbXbXbXbXbXbXbXbXbXbXbXbXbXbXbXbXbXbXbXbXbXbXbXbXbXbXbXbXbXbXbXbXbXbXbXbXbXbXbXbXbXbXbXbXbXbXbXbXbXbXbXbXbXbXbXbXbXbXbXbXbXbX",
"bXbXbXbXbXbXbXbXbXbXbXbXbXbXbXbXbXbXbXbXbXbXbXbXbXbXbXbXbXbXbXbXbXbXbXbXbXbXbXbXbXbXbXbXbXbXbXbXbXbXbXbXbXbXbXbXbXbXbXbXbXbXbXbX",
"bXbXbXbXbXbXbXbXbXbXbXbXbXbXbXbXbXbXbXbXbXbXbXbXbXbXbXbXbXbXbXbXbXbXbXbXbXbXbXbXbXbXbXbXbXbXbXbXbXbXbXbXbXbXbXbXbXbXbXbXbXbXbXbX",
"bXbXbXbXbXbXbXbXbXbXbXbXbXbXbXbXbXbXbXbXbXbXbXbXbXbXbXbXbXbXbXbXbXbXbXbXbXbXbXbXbXbXbXbXbXbXbXbXbXbXbXbXbXbXbXbXbXbXbXbXbXbXbXbX",
"bXbXbXbXbXbXbXbXbXbXbXbXbXbXbXbXbXbXbXbXbXbXbXbXbXbXbXbXbXbXbXbXbXbXbXbXbXbXbXbXbXbXbXbXbXbXbXbXbXbXbXbXbXbXbXbXbXbXbXbXbXbXbXbX",
"bXbXbXbXbXbXbXbXbXbXbXbXbXbXbXbXbXbXbXbXbXbXbXbXbXbXbXy x X. ..... . .x 1 bXbXbXbXbXbXbXbXbXbXbXbXbXbXbXbXbXbXbXbXbXbXbXbXbXbXbX",
"bXbXbXbXbXbXbXbXbXbXbXbXbXbXbXbXbXbXbXbXbXbXbXbXbXbX& z :.l.l.5.5.4.b.:.c bXbXbXbXbXbXbXbXbXbXbXbXbXbXbXbXbXbXbXbXbXbXbXbXbXbXbX",
"bXbXbXbXbXbXbXbXbXbXbXbXbXbXbXbXbXbXbXbXbXbXbXbXbXbX` <.z.n.c.x.x.c.n.z.<.` bXbXbXbXbXbXbXbXbXbXbXbXbXbXbXbXbXbXbXbXbXbXbXbXbXbX",
"bXbXbXbXbXbXbXbXbXbXbXbXbXbXbXbXbXbXbXbXbXbXbXbXbX_.;X3XM.M.n.n.n.M.M.<X3X-X+XW bXbXbXbXbXbXbXbXbXbXbXbXbXbXbXbXbXbXbXbXbXbXbXbX",
"bXbXbXbXbXbXbXbXbXbXbXbXbXbXbXbXbXbXbXbXbXbXbXbX_ -XxXfX<XM.v.v.m.m.n.<XfXzX-X_ bXbXbXbXbXbXbXbXbXbXbXbXbXbXbXbXbXbXbXbXbXbXbXbX",
"bXbXbXbXbXbXbXbXbXbXbXbXbXbXbXbXbXbXbXbXbXbXbXbX_ ;XcXfX<Xl.4.4.4.l.x.<XfXxX;X_ bXbXbXbXbXbXbXbXbXbXbXbXbXbXbXbXbXbXbXbXbXbXbXbX",
"bXbXbXbXbXbXbXbXbXbXbXbXbXbXbXbXbXbXbXbXbXbXbXbX_ ;XxXdX<X5.2.1.1.2.5.M.dXxX;X_ bXbXbXbXbXbXbXbXbXbXbXbXbXbXbXbXbXbXbXbXbXbXbXbX",
"bXbXbXbXbXbXbXbXbXbXbXbXbXbXbXbXbXbXbXbXbXbXbXbX_ -XzXsX<X0.1.-.-.1.0.<XsXzX-X_ bXbXbXbXbXbXbXbXbXbXbXbXbXbXbXbXbXbXbXbXbXbXbXbX",
"bXbXbXbXbXbXbXbXbXbXbXbXbXbXbXbXbXbXbXbXbXbXbXbXQ *XlXxXsX3Xb.-.-.8.3XsXxXlX*XW bXbXbXbXbXbXbXbXbXbXbXbXbXbXbXbXbXbXbXbXbXbXbXbX",
"bXbXbXbXbXbXbXbXbXbXbXbXbXbXbXbXbXbXbXbXbXbXbXbXC @XhXvXjXsX>X6.,.>XsXcXvXpX&XC bXbXbXbXbXbXbXbXbXbXbXbXbXbXbXbXbXbXbXbXbXbXbXbX",
"bXbXbXbXbXbXbXbXbXbXbXbXbXbXbXbXbXbXbXbXbXbXbXbX0 L.0XpXlXlX;X!.!.tXkXlXpX0XI.0 bXbXbXbXbXbXbXbXbXbXbXbXbXbXbXbXbXbXbXbXbXbXbXbX",
"bXbXbXbXbXbXbXbXbXbXbXbXbXbXbXbXbXbXbXbXbXbXbXbX3 / W.5XiXeXqX9X).wXpXeX#X#X/ 3 bXbXbXbXbXbXbXbXbXbXbXbXbXbXbXbXbXbXbXbXbXbXbXbX",
"bXbXbXbXbXbXbXbXbXbXbXbXbXbXbXbXbXbXbXbXbXbXbXb 7 A J.W.#X#X7X7X7X5X#X#XW.G.A 8 % bXbXbXbXbXbXbXbXbXbXbXbXbXbXbXbXbXbXbXbXbXbXbX",
"bXbXbXbXbXbXbXbXbXbXbXbXbXbXbXbXbXbXbXbXbXbXbXQ Z B B D J.R.R.R.W.W.R.J.D B B Z Q bXbXbXbXbXbXbXbXbXbXbXbXbXbXbXbXbXbXbXbXbXbXbX",
"bXbXbXbXbXbXbXbXbXbXbXbXbXbXbXbXbXbXbXbXbXbXbXW.H.B 2 8 F G.G.J.J.D G.F 7 5 V L.W.bXbXbXbXbXbXbXbXbXbXbXbXbXbXbXbXbXbXbXbXbXbXbX",
"bXbXbXbXbXbXbXbXbXbXbXbXbXbXbXbXbXbXbXbXbXbXbX#X#XZ 3 4 b F F D F F F A 4 2 ^ Q.5XbXbXbXbXbXbXbXbXbXbXbXbXbXbXbXbXbXbXbXbXbXbXbX",
"bXbXbXbXbXbXbXbXbXbXbXbXbXbXbXbXbXbXbXbXbXbXbX0X5XH.n n F U I I I V.F L S n H.5X0XbXbXbXbXbXbXbXbXbXbXbXbXbXbXbXbXbXbXbXbXbXbXbX",
"bXbXbXbXbXbXbXbXbXbXbXbXbXbXbXbXbXbXbXbXbXbXbXiXwX(.Z.U V.C.C.Z.A.C.C.V.U Z.Q.wXqXbXbXbXbXbXbXbXbXbXbXbXbXbXbXbXbXbXbXbXbXbXbXbX",
"bXbXbXbXbXbXbXbXbXbXbXbXbXbXbXbXbXbXbXbXbXbX&XhXwX).Z.U V.V.V.V.C.C.V.V.U Z.(.wXiXbXbXbXbXbXbXbXbXbXbXbXbXbXbXbXbXbXbXbXbXbXbXbX",
"bXbXbXbXbXbXbXbXbXbXbXbXbXbXbXbXbXbXbXbXbXbX&XgXtX(.U J K P P P P P P L J P (.tXgXbXbXbXbXbXbXbXbXbXbXbXbXbXbXbXbXbXbXbXbXbXbXbX",
"bXbXbXbXbXbXbXbXbXbXbXbXbXbXbXbXbXbXbXbXbXbX%XzXaX(.Y J J H H H J J H L J Y (.aXzXbXbXbXbXbXbXbXbXbXbXbXbXbXbXbXbXbXbXbXbXbXbXbX",
"bXbXbXbXbXbXbXbXbXbXbXbXbXbXbXbXbXbXbXbXbXbX%XzXkX=XT.Z.L H n S S n S L Y T.9XzXzXbXbXbXbXbXbXbXbXbXbXbXbXbXbXbXbXbXbXbXbXbXbXbX",
"bXbXbXbXbXbXbXbXbXbXbXbXbXbXbXbXbXbXbXbXbXbX%XzXxXyX XT.U H S H S S J V.^. XyXjXzXbXbXbXbXbXbXbXbXbXbXbXbXbXbXbXbXbXbXbXbXbXbXbX",
"bXbXbXbXbXbXbXbXbXbXbXbXbXbXbXbXbXbXbXbXbXbX$XgXjXyXOX{.K.Z.U Y Z.Y Z.D./.oXyXjXgXbXbXbXbXbXbXbXbXbXbXbXbXbXbXbXbXbXbXbXbXbXbXbX",
"bXbXbXbXbXbXbXbXbXbXbXbXbXbXbXbXbXbXbXbXbXbX&XhXhXrXXX{.[././././././.[./.XXrXkXhXbXbXbXbXbXbXbXbXbXbXbXbXbXbXbXbXbXbXbXbXbXbXbX",
"bXbXbXbXbXbXbXbXbXbXbXbXbXbXbXbXbXbXbXbXbXbXbXiXeX9X{.{.XXOXOXOXoXoXOX|.{.{.9XeXiXbXbXbXbXbXbXbXbXbXbXbXbXbXbXbXbXbXbXbXbXbXbXbX",
"bXbXbXbXbXbXbXbXbXbXbXbXbXbXbXbXbXbXbXbXbXbXbX0XeX X[.{.XXOXOXOXOXOXOXXX{.{. XeXqXbXbXbXbXbXbXbXbXbXbXbXbXbXbXbXbXbXbXbXbXbXbXbX",
"bXbXbXbXbXbXbXbXbXbXbXbXbXbXbXbXbXbXbXbXbXbXbX5X8X X[.{.{.}.}.}.}.|.}.{.{.[.|.8X7XbXbXbXbXbXbXbXbXbXbXbXbXbXbXbXbXbXbXbXbXbXbXbX",
"bXbXbXbXbXbXbXbXbXbXbXbXbXbXbXbXbXbXbXbXbXbXbX4X6X.X~.T.^.^.^.[.~.~.~.^.F.[..X6X7XbXbXbXbXbXbXbXbXbXbXbXbXbXbXbXbXbXbXbXbXbXbXbX",
"bXbXbXbXbXbXbXbXbXbXbXbXbXbXbXbXbXbXbXbXbXbXbX7X6X.XF.F.F.F.F.F.F.F.F.F.F.T./.8X#XbXbXbXbXbXbXbXbXbXbXbXbXbXbXbXbXbXbXbXbXbXbXbX",
"bXbXbXbXbXbXbXbXbXbXbXbXbXbXbXbXbXbXbXbXbXbXbX4X6XT.D.S.S.S.S.S.S.S.S.S.D.D.T.6X4XbXbXbXbXbXbXbXbXbXbXbXbXbXbXbXbXbXbXbXbXbXbXbX",
"bXbXbXbXbXbXbXbXbXbXbXbXbXbXbXbXbXbXbXbXbXbXbXW.Q.Y.T.S.Z.C.V.V.C.V.C.Z.D.K.Y.Q.W.bXbXbXbXbXbXbXbXbXbXbXbXbXbXbXbXbXbXbXbXbXbXbX",
"bXbXbXbXbXbXbXbXbXbXbXbXbXbXbXbXbXbXbXbXbXbXbXQ [ E.Q.Y.Z.P J L P K P A.T.Q.E.[ Q bXbXbXbXbXbXbXbXbXbXbXbXbXbXbXbXbXbXbXbXbXbXbX",
"bXbXbXbXbXbXbXbXbXbXbXbXbXbXbXbXbXbXbXbXbXbXbX% C P.Q.Q.A.P L L J L L A.Q.#XP.V % bXbXbXbXbXbXbXbXbXbXbXbXbXbXbXbXbXbXbXbXbXbXbX",
"bXbXbXbXbXbXbXbXbXbXbXbXbXbXbXbXbXbXbXbXbXbXbXbX9 ] P.U.J.A.I A.Y Y Y J.P.P.[ 7 bXbXbXbXbXbXbXbXbXbXbXbXbXbXbXbXbXbXbXbXbXbXbXbX",
"bXbXbXbXbXbXbXbXbXbXbXbXbXbXbXbXbXbXbXbXbXbXbXbX% 9 V ^ J.Y.R.Y.Y.E.Y.J.[ V 9 % bXbXbXbXbXbXbXbXbXbXbXbXbXbXbXbXbXbXbXbXbXbXbXbX",
"bXbXbXbXbXbXbXbXbXbXbXbXbXbXbXbXbXbXbXbXbXbXbXbXbXbX# B [ P.R.P.P.E.P.[ 9 $ bXbXbXbXbXbXbXbXbXbXbXbXbXbXbXbXbXbXbXbXbXbXbXbXbXbX",
"bXbXbXbXbXbXbXbXbXbXbXbXbXbXbXbXbXbXbXbXbXbXbXbXbXbXbX7 Z ^ ^ ^ ^ ^ ^ Z 3 bXbXbXbXbXbXbXbXbXbXbXbXbXbXbXbXbXbXbXbXbXbXbXbXbXbXbX",
"bXbXbXbXbXbXbXbXbXbXbXbXbXbXbXbXbXbXbXbXbXbXbXbXbXbXbXbXbXbXbXbXbXbXbXbXbXbXbXbXbXbXbXbXbXbXbXbXbXbXbXbXbXbXbXbXbXbXbXbXbXbXbXbX",
"bXbXbXbXbXbXbXbXbXbXbXbXbXbXbXbXbXbXbXbXbXbXbXbXbXbXbXbXbXbXbXbXbXbXbXbXbXbXbXbXbXbXbXbXbXbXbXbXbXbXbXbXbXbXbXbXbXbXbXbXbXbXbXbX",
"bXbXbXbXbXbXbXbXbXbXbXbXbXbXbXbXbXbXbXbXbXbXbXbXbXbXbXbXbXbXbXbXbXbXbXbXbXbXbXbXbXbXbXbXbXbXbXbXbXbXbXbXbXbXbXbXbXbXbXbXbXbXbXbX",
"bXbXbXbXbXbXbXbXbXbXbXbXbXbXbXbXbXbXbXbXbXbXbXbXbXbXbXbXbXbXbXbXbXbXbXbXbXbXbXbXbXbXbXbXbXbXbXbXbXbXbXbXbXbXbXbXbXbXbXbXbXbXbXbX",
"bXbXbXbXbXbXbXbXbXbXbXbXbXbXbXbXbXbXbXbXbXbXbXbXbXbXbXbXbXbXbXbXbXbXbXbXbXbXbXbXbXbXbXbXbXbXbXbXbXbXbXbXbXbXbXbXbXbXbXbXbXbXbXbX",
"bXbXbXbXbXbXbXbXbXbXbXbXbXbXbXbXbXbXbXbXbXbXbXbXbXbXbXbXbXbXbXbXbXbXbXbXbXbXbXbXbXbXbXbXbXbXbXbXbXbXbXbXbXbXbXbXbXbXbXbXbXbXbXbX",
"bXbXbXbXbXbXbXbXbXbXbXbXbXbXbXbXbXbXbXbXbXbXbXbXbXbXbXbXbXbXbXbXbXbXbXbXbXbXbXbXbXbXbXbXbXbXbXbXbXbXbXbXbXbXbXbXbXbXbXbXbXbXbXbX",
"bXbXbXbXbXbXbXbXbXbXbXbXbXbXbXbXbXbXbXbXbXbXbXbXbXbXbXbXbXbXbXbXbXbXbXbXbXbXbXbXbXbXbXbXbXbXbXbXbXbXbXbXbXbXbXbXbXbXbXbXbXbXbXbX",
"bXbXbXbXbXbXbXbXbXbXbXbXbXbXbXbXbXbXbXbXbXbXbXbXbXbXbXbXbXbXbXbXbXbXbXbXbXbXbXbXbXbXbXbXbXbXbXbXbXbXbXbXbXbXbXbXbXbXbXbXbXbXbXbX",
"bXbXbXbXbXbXbXbXbXbXbXbXbXbXbXbXbXbXbXbXbXbXbXbXbXbXbXbXbXbXbXbXbXbXbXbXbXbXbXbXbXbXbXbXbXbXbXbXbXbXbXbXbXbXbXbXbXbXbXbXbXbXbXbX",
"bXbXbXbXbXbXbXbXbXbXbXbXbXbXbXbXbXbXbXbXbXbXbXbXbXbXbXbXbXbXbXbXbXbXbXbXbXbXbXbXbXbXbXbXbXbXbXbXbXbXbXbXbXbXbXbXbXbXbXbXbXbXbXbX",
"bXbXbXbXbXbXbXbXbXbXbXbXbXbXbXbXbXbXbXbXbXbXbXbXbXbXbXbXbXbXbXbXbXbXbXbXbXbXbXbXbXbXbXbXbXbXbXbXbXbXbXbXbXbXbXbXbXbXbXbXbXbXbXbX",
"bXbXbXbXbXbXbXbXbXbXbXbXbXbXbXbXbXbXbXbXbXbXbXbXbXbXbXbXbXbXbXbXbXbXbXbXbXbXbXbXbXbXbXbXbXbXbXbXbXbXbXbXbXbXbXbXbXbXbXbXbXbXbXbX"
};
