/* XPM */
static char *result[] = {
/* columns rows colors chars-per-pixel */
"64 64 5 1 ",
"  c #FFCBA9",
". c #EF9597",
"X c #FFBC75",
"o c #FFCB8D",
"O c white",
/* pixels */
"       .  ..   .    .    .   .  .  ..    .         .   .  ..    ",
" .    ... .   . .  .      . .  .  .       .  .    .   ... .  .  ",
"  .  ..XX..  ...  .    .  ...  .  .    .  . .  ....  ..XX.. ... ",
"   ...XXXXX..XXX  .  .... .... . ..  .... ...  .XX. ..XXXXX.   .",
".. .XXXXXXXXXXXX .. .......XXX................ .XXX.XXXXXXXX.   ",
"  .XXXXoooXXXXoX......XXXXXXXXXXX.....XXXXXXXX..XXXXXXXoooXX..  ",
" .XXXooooooooooXX...XXXXXXXXoXXXXXXXXXXXXXXXXXXXXoXXXooooooXX.. ",
"...XoooooooooooXXXXXXXXoooooooooXXXXXXXooooooXXXXooooooooooXXX..",
"   .ooooooooooooXXXXXoooooooooooooooooooooooooooooooooooooooXX. ",
"  .XXoooooooooooooooooooooooooooooooooooooooooooooooooooooooo.  ",
" ..XXoooooooooooooooooooooooooooooooooooooooooooooooooooooooX...",
"...Xoooooooooooooooooooooooooooooooooooooooooooooooooooooooo.  .",
"..XXoooooooooooooooooooooooooooooooooooooooooooooooooooooooX.   ",
" .XXooooooooooo.oooooooooooo........oooooooooooo.ooooooooooXX.  ",
"  .ooooooooooo. ooooooooooo...    ...ooooooooooo .oooooooooXX.. ",
"  .Xooooooooo.  oooooooooo..        ..oooooooooo  .oooooooooX. .",
"  ....oooooooooooooooooooooooooooooooooooooooooooooooooooo.   . ",
"     .Xoooooooooooooooooooooooooooooooooooooooooooooooooo...    ",
" .  .XXoooooooooooooooooooooooooooooooooooooooooooooooooX.....  ",
"  ...XXoooooooooooooooooooooooooooooooooooooooooooooooooX..   . ",
"   ..XooooooooooooooooooooooooooooooooooooooooooooooooooXX..   .",
" ....XooooooooooooooooooooooooooooooooooooooooooooooooooXX...   ",
".   .XoooooooooooooooooooooooooooooooooooooooooooooooooooXX..   ",
"   ..XoooooooooooooooooooooooooooooooooooooooooooooooooooXX...  ",
"  ...XooooooooooooooooooooooooooooooooooooooooooooooooooooX..   ",
"   ..Xoooooooooooooooooooooo...oooooooooooooooooooooooooooX.   .",
"   ...ooooooooooooooooooooo.......ooooooooooooooooooooooooX.... ",
".   ..XoooooooooooooooooooX. .. . ....ooooooooooooooooooooX..   ",
" .   ..oooooooooooooooooooX...  .  . ..oooooooooooooooooooX...  ",
"  .....Xooooooo.ooooooooooX.    .  ....Xoooooooo.oooooooooX.  . ",
"    ...Xoooooo. oooooooooo.    .    ...Xoooooooo .oooooooo.     ",
" .   .XXooooo.  oooooooooX....   .   .XXoooooooo  .ooooooX....  ",
"  ....XXooooX.  oooooooooX.   .   ....XXoooooooo  .XoooooX.   . ",
"     .XoooooXX. ooooooooo...    .    .Xooooooooo .XXooooo...    ",
" .  .XXoooooXXX.ooooooooX..... .  . .XXooooooooo.XXXooooX.....  ",
"  ...XXooooooXXXooooooooX..    .  . .XXoooooooooXXXoooooX..   . ",
"   ..XooooooooXXooooooooXX.... . .. .XooooooooooXXooooooXX..   .",
" ....XoooooooooooooooooooXXXXX.......XooooooooooooooooooXX...   ",
".   .XooooooooooooooooooooXXXXXXX...XXoooooooooooooooooooXX..   ",
"   ..XoooooooooooooooooooooooXXXXXXXXXoooooooooooooooooooXX...  ",
"  ...XooooooooooooooooooooooooooXXXXXoooooooooooooooooooooX..   ",
"   ..XooooooooooooooooooooooooooooooooooooooooooooooooooooX.   .",
"   ...ooooooooooooooooooooooooooooooooooooooooooooooooooooX.... ",
".   ..XoooooooooooooooooooooooooooooooooooooooooooooooooooX..   ",
" .   ..oooooooooooooooooooooooooooooooooooooooooooooooooooX...  ",
"  .....XooooooooooooooooooooooooooooooooooooooooooooooooooX.  . ",
"    ...Xoooooooooooooooooooooooooooooooooooooooooooooooooo.     ",
" .   .XXoooooooooooooooooooooooooooooooooooooooooooooooooX....  ",
" .XoooooooooX.  oooooooooX.   .  .   .Xooooooooo  .XooooooooX.  ",
"...XooooooooXX. oooooooooX..        ..Xooooooooo .XXooooooooX.  ",
"   .ooooooooXXX.oooooooooXX...    ...XXooooooooo.XXXoooooooo... ",
"  .XXooooooooXXXoooooooooXXX........XXXoooooooooXXXoooooooo.   .",
"...XXoooooooooXXooooooooooXXXXXXXXXXXXooooooooooXXooooooooXX.   ",
"  .XoooooooooooooooooooooooXXXXXXXXXXoooooooooooooooooooooXX..  ",
" .XXoooooooooooooooooooooooooooooooooooooooooooooooooooooooXX.. ",
"...XoooooooooooooooooooooooooooooooooooooooooooooooooooooooXXX..",
"   .ooooooooooooooooooooooooooooooooooooooooooooooooooooooooXX. ",
"  .XXooooooooooooooooooooooooooooooooooooooo...oooooooooooooo.  ",
" ..XXooooooooooo..oooooooooooooooooooooooo......ooooooooooooX...",
"...Xoooooooooooo. ......oo...oooooooo....... .. oooooooooooo.  .",
"   .oooo.ooooooo.  ... ....  ......... ....  .  oo.ooooo.ooX.   ",
"  ....o. ...oo...  . .  .    . .  .  .  .    .  o. ...o. .....  ",
" .  . ..  ....    .  .      .  .   . .      .  ...  . ..  .   . ",
" .  .  .   ..         .    .       .  .    .     .  .  .   .   ."
};
