/* XPM */
static char *result[] = {
/* columns rows colors chars-per-pixel */
"64 64 57 1 ",
"  c #ADBC3A",
". c #ADBD3A",
"X c #ABB435",
"o c #A9A62C",
"O c #A89F28",
"+ c #ACB636",
"@ c #AAAB2F",
"# c #A9A52C",
"$ c #ADBD3B",
"% c #ACB938",
"& c #ACB435",
"* c #ABB233",
"= c #ADBB39",
"- c #ADB938",
"; c #ADBA39",
": c #AAAE31",
"> c #AAAC30",
", c #ABB234",
"< c #ADBB3A",
"1 c #ACB535",
"2 c #ABAF32",
"3 c #ABB334",
"4 c #ADBE3B",
"5 c #ABB133",
"6 c #A8A32A",
"7 c #A9A42B",
"8 c #ACB737",
"9 c #AAAD31",
"0 c #ACB536",
"q c #ABB032",
"w c #ABB033",
"e c #AAAD30",
"r c #A8A22A",
"t c #ACB837",
"y c #ACB838",
"u c #A9A72D",
"i c #AAAA2E",
"p c #AAAA2F",
"a c #A9A92E",
"s c #ADBA38",
"d c #AAA92E",
"f c #A9A82D",
"g c #A8A129",
"h c #A8A42B",
"j c #ABB335",
"k c #A9A52B",
"l c #A8A029",
"z c #A8A028",
"x c #A8A229",
"c c #A89F27",
"v c #A8A32B",
"b c #AAAB30",
"n c #A9A82E",
"m c #ACB637",
"M c #A89E27",
"N c #AEBF3C",
"B c white",
/* pixels */
"                                                           . XoO",
"                                                             +@#",
"                     $$$.                         $.         %&*",
"                    =-%%;                        =-;            ",
"            .$$$  $ +:@>,;$                    .<123=$$.     .$4",
"            <===<  ;5o67>8                     $=2o9- ==      ==",
"          $ 0q:q+<8w9>>e:q&;                   $=9r@%t,&;    y,2",
"          .-2#6o5%5u>8;y5u@t.                  $=:7e%3u>%$ . 0i7",
"         =+*9pap:,:@,<=0>6a8$                  .=3>,sw6dt$   89a",
"        .-:f2+t+:fe0; &d6gi8$                    -8;=w7it$   ;t+",
"        .-2a:+==:he;<+e6Ogu5t=                    .$ 3p2%.    $$",
"         =t3>pj;:h9-0@kglg6o:t.                    . %08=     $$",
"          $;2f5%:79%5hzgggx7>8.                              =y8",
"          $ +,8;:6e%5rczzz#:0;                        .      8:i",
"             <.=2o2%3o6h6h@8                               . 0dv",
"$$$.    .$$$$$$<050;852222X;$          .$                    t5:",
"====    <===<   =;= <;;;;;=            ==<                   <=;",
"qq2,%$4=1q258 $  $.  $$$$$.        ...;&,8 $.                 .$",
"k77d1 $%9k6u*=.                      .y>f, .                    ",
"ida@q3j5>aap:3t                   ;+0;8avw=8&t                 .",
"8883bo#nw+80en5=.                .8>p0tp75%qa5=.                ",
"+t<8ag6p0 ;0ed*=.                .+uk3%2p&%>6:=$             ;80",
"f9t8av>0==5@21%                  .+u7,=80;%@6:=$             +9n",
"7p+8a#,<=0d7e8=                  .8@a& . $s:f5=.           . &uz",
"wj-mfk3;3p7x#>&=.                 ;&3y ...=+38             . X#M",
"=  8puXy>rlgro5=$                  <<      <<              . 1a6",
"$$.-,5ytpzMgu:+<                   ..      .$                y*:",
"    =; y>rl72%                                               <;;",
"    .$$;,>@:+ $                                               .$",
"       <;yt%;                                                   ",
"        .$$.                                                    ",
"                                                                ",
"                                                                ",
"                                                                ",
"                                                                ",
"                                                                ",
"                                                                ",
"               $$$$$.                                 $$$.      ",
"               <====                                  <==<      ",
"            $ m5w5w5+<$                       .$.  . t,q51=$    ",
"            $;qo7#7o2s$                            .<3fh#9y.    ",
"          . t39afffa93t<.                  . t&3&y %&2dfa>,8=   ",
"          $;qa:1+0+02d2;$                  $=5f#f,;jd>X++wi9t.  ",
"         <%1>n5<4 =8e6fj%<                <%09u#u:12n2; t:7n8$  ",
"        .;wp93y 4.0>#x6fq%.              .;5p:3X,:@9,t 89oxa8$. ",
"        $%9u5=$ =t:6zgx79y.              $-:u:t ;:7>% %q7zgnX;  ",
"         =&58 $=&>#lczo:1;                =0qe:+;2v>;t:urzg7d5%.",
"          <=< $=wo66r6>t                    %:uw%27e%,#ggggg6@8.",
"  .$$$$$$$$$  .=1:e:9:X=$                  $ X20;:6>%56Mzzz7p*% ",
"   <<<<<<<      =s%---;                      ;; ;2k9%,kgxgxa1=  ",
"$;15555553y .    $$$$$.          ....     ...$$$=j9,;+9@@@@5s$  ",
"$8>#k###kf3 .                                    ;y-<;y8t8t%<   ",
"&5>fffffud2&% .                .=+XX0;.$<8&j1% .  .   .$.$..    ",
"up5+001003>d3 $               .$teoo@+$4;2uoa3 $                ",
"#d,y<.. $;:f:8;               =y3po#a58t&>oku2+;                ",
",w>:t4$.$<8*e>j=.             89@w335epdp2,j,9@,=.              ",
".+n#5-<   .%>7:=$             0ia3; 8pxrf3=<8euq=$              ",
"N8nrf28   4;@r9=$             %,:ew%tdra5% 0::5+<               ",
"<0ngguj . $seo2=$              <0da08dk5; t>#:y<                ",
"2>7zOk3.$ .=j21<.             .$%wqt8ak,=+:orfq8<               ",
"77rgz#,<.   ;-=                 <;; 8do3%:7ggro5=$              ",
"p@@ahh>j%   .$                   .$$%q:mybgOx#@X=.              ",
"88t3fx6aX .                         =%y=y>gO6e+;                ",
"$$4tilO75 $                          .$$%>gOvw $                "
};
