/* XPM */
static char *result[] = {
/* columns rows colors chars-per-pixel */
"63 63 10 1 ",
"  c #141B1B",
". c #965746",
"X c #BD7959",
"o c #8D977F",
"O c #C69469",
"+ c #D2B37D",
"@ c #AFC29F",
"# c #ECD5AD",
"$ c #F2EAF1",
"% c None",
/* pixels */
"%%%  $$$$$$$$$$$$$$$$$$$$$$$$$$$$$$$$$$$$$$  %%%%%%%%%%%%%%%%%%",
"%% $$$$$$$$$$$$$$$$$$$$$$$$$$$$$$$$$$$$$$$$$$ %%%%%%%%%%%%%%%%%",
"% $$$$$++++++++++++++++++++++++++++++++++$$$$$ %%%%%%%%%%%%%%%%",
"% $$$++++++++++++++++++++++++++++++++++++++$$$ %%%%%%%%%%%%%%%%",
" $$$+++XXXXXXXXXXXXXXXXXXXXXXXXXXXXXXXXXX+++$$$ %%%%%%%%%%%%%%%",
" $$$+XXXXXXXXXXXXXXXXXXXXXXXXXXXXXXXXXXXXXX+$$$ %%%%%%%%%%%%%%%",
" $$.XXXOOOOOOOOOOOOXOOOOOOOOOOOOXOOOOOOOOOOX.$$ %%%%%%%%%%%%%%%",
" $$.XXOOOOOOOOOXOXXXOOOOOOOOOOOOXXXXXOOOOOOO.$$ %%%%%%%%%%%%%%%",
" $$.XXOOOOOOOOOOOOOXOOOOOOOOOOOOXOOOOOOOOOOO.$$ %%%%%%%%%%%%%%%",
" $$.XXXXXXXXXXXXXXXXXXXXXXXXXXXXXXXXXXXXXXX.$$$ %%%%%%%%%%%%%%%",
" $$.XXOOOXOOOOOOOOOOOOOOOOXOOOOOOOOOOOOOOOO.$$$             %%%",
" $$.XXOOOXXXOOOOOOOOOOOOOOXOOOOOOOOOOOOOO..$$$$ $$$$$$$$$$$$  %",
" $$.XXOOOXOOOOO..........................$$$$$+ $$$$$$$$$$$$$$ ",
" $$.XXOOOXXOOO.$$$$$$$$$$$$$$$$$$$$$$$$$$$$$$++    ++      $$$$",
" $$.XXOOOXOOO.$$$$$$$$$$$$$$$$$$$$$$$$$$$$$++++ %% ++ %%%%% $$$",
" $$.XXOOOXOO.$$$$$##########+++$$##########++++    ##      % $$",
" $$.XXXXXXXX.$$X$############+$$###########++++ $$X##X$$$$$  $$",
" $$.XXOOOOOO.$$X#############+#############+++O $$X##X$$$$$$ $$",
" $$.XXOOOOOO.$$ #############+#############++O+ $$$##$$$$$$$ $$",
" $$.XXOOOOOO.$$ +###########+++###########+OO++ ++++++++++$$ $$",
" $$.XXXXXOOO.$$ O+++++++++++++++++++++++++O++++ +++++++++++$ $$",
" $$.XXOOOOOO.$$ ++#+++$$++X  o  X+#+++$$##+++++ XXXXXXXX++++ $$",
" $$.XXXXXXXX.$$ ++##+$$##+   o   +##+$$####++++XXOOOOOOOXX++ $$",
" $$.XXOOOXOO.$$ +++#+####+o@@@@@o+##+######+++OXXOOOOOOOOOX+ $$",
" $$.XXOOOXOO.$$ +++#+####+   @   +##+######++O+XXOOOOOOOOOOX $$",
" $$.XXOOOXOO.$$ ++++++###+XX @ XX+#+++####+OO++XXXXXXXXXXXXX $$",
" #$$.XOOOXO.$$# OOOOO++++++XXXXX++++++++++O++++XXOOOOOOOOOOX $$",
" #$$$......$$$# +++++######+++++$$########++++XXOOOOOOOOOOOX $$",
" ##$$$$$$$$$$## +++++########+$$$##########+++XXOOOOOOOOOOOX $$",
" ####$$$$$$#### ++++++#######+#############++XXXXXOXOOOOOOOX $$",
" ###$######$### ++++++#######+#############XXXOOOOOOOOOOOOOX $$",
" ###$$$$$$$$### XXXXXXXXXXXXXXXXXXXXXXXXXXXXXXXXXXXXXXXXXXXX $$",
" ###$##$$$$$### XXXXXXXXXXXXXXXXXXXXXXXXXXXOOOOXOOOOOOOOOOOX $$",
" ####$$#$$$$### XXXXXXXXXOOOOOOOOOXOOOOOOOOOOOOXOOOOOOOOOOOX $$",
" ##+$X $#$$#### XXXXXXXXXXXXOOOOOOXXXOOOOOOOOOOXOOOOOOXOXXXX $$",
" #+$XX  $##$### XXXXXXXXOOOOOOOOOOXOOOOOOOOOOOOXOOOOOOOOOOO $$$",
" #+$XX  $#$$###                                            $$$#",
" #+$XX  $#$$### +++++##$$$$$$$$$$$$$$$$$$$$$$$$$$$$$$$$$$$$$$# ",
" #+$XX  $#$$###++++++##$$$$$$$$$$$$$$$$$$$$$$$$$$$$$$$$$$$$## $",
" #+$XX  $+$$###    ++      ++      ++      ++      ++        $$",
" #+$XX+ $+$$###XXX ++ XXOO ++ OOOO ++ OOXO ++ OOOO ++ OXOOO.$$$",
" #+$X+++$+$$###XXX ## XXOO ## OOOO ## OOXO ## OOOO ## OXO..$$$$",
" ##+$++$+$$$###X..X##X....X##X....X##X....X##X....X##X...$$$$$X",
" ###+$$+$$$$###+##X##X#$$$X##X$$$$X##X$$$$X##X$$$$X##X$$$$$$$$X",
" ###$++########+#######$$$$##$$$$$$##$$$$$$##$$$$$$##$$$$$$$$X#",
" ##$$$$$$######+#######$$$$$$$$$$$$$$$$$$$$$$$$$$$$$$$$$$$$#X##",
" ##$$$$$$$#$###############################################$$##",
" ##$$$$$$$#$###++++++++++++++++++#$$$$$$$$$$$$$$$$$$#$$$$$$$$##",
" ##$$$$$$$#$##+++XXXXXXXXXXXXXX+++#$$$$$$$$$$$$$$$$$#$$$$$$$$##",
" ##$$$$$$$#$#+++XXX          XXX+++#$$$$$$$$$$$$$$$$#$$$$$$$###",
" +##$$$$$$#$#+++XX            XX+++#$$$$$$$$$$$$$$$###$$$$$####",
" #++#$$$$####++XX              XX++########################$###",
" ###$#######+XX+X              X+XX+$$$$###$$$#  o  #$$$$$$$$##",
" ##$$$###$$$#+++X              X+++#$$$$$#$$$$   o   $$$$$$$$##",
" ##$$$$#$$$$#+++X              X+++#$$$$$#$$$$o@@@@@o$$$$$$$$##",
" ##$$$$#$$$$#+++X              X+++#$$$$$#$$$$   @   $$$$$$$$##",
" +#$$$$#$$$$#+++X              X+++#$$$$$#$$$$++ @ ++$$$$$$$###",
" #++#$###$$$#++XX              XX++#$$$$###$$$#+++++#$$$$$$#$##",
"%###$#######+XXXX              X+XX+#######################$$##",
"%##$$$$$$####+++X              X+++#$$$$$$$$$$$$$$$###$$$$$$$##",
"%%#$$$$$$$#$#+++X  XXXXXXXXXX  X+++#$$$$$$$$$$$$$$$$#$$$$$$$##%",
"%%%$$$$$$$#$#+++X XXXXXXXXXXXX X+++#$$$$$$$$$$$$$$$$#$$$$$$$#%%",
"%%%%%$$$$$#$#++XXX%%%%%%%%%%%%XXX++#$$$$$$$$$$$$$$$$#$$$$$$%%%%"
};
