/* XPM */
static char *result[] = {
/* columns rows colors chars-per-pixel */
"64 64 240 2 ",
"   c #381B16",
".  c #3E211D",
"X  c #3A343C",
"o  c #45241E",
"O  c #492923",
"+  c #542D25",
"@  c #593529",
"#  c #4C3236",
"$  c #5A383A",
"%  c #553538",
"&  c #4E2E36",
"*  c #64372D",
"=  c #653D3B",
"-  c #663C32",
";  c #401F1A",
":  c #684239",
">  c #72443B",
",  c #764B3A",
"<  c #7C533E",
"1  c #69432F",
"2  c #3C3D40",
"3  c #5B3C43",
"4  c #543544",
"5  c #4A3B47",
"6  c #613E43",
"7  c #334C57",
"8  c #315770",
"9  c #326B72",
"0  c #5B434B",
"q  c #5A4956",
"w  c #565453",
"e  c #63444C",
"r  c #6A4A4D",
"t  c #654548",
"y  c #754C45",
"u  c #695648",
"i  c #7A5548",
"p  c #644A54",
"a  c #6C4C53",
"s  c #694C58",
"d  c #704F55",
"f  c #6B5159",
"g  c #735253",
"h  c #74545C",
"j  c #79565C",
"k  c #7C5B5C",
"l  c #795855",
"z  c #796358",
"x  c #535668",
"c  c #6A5966",
"v  c #745B65",
"b  c #7C5C63",
"n  c #7C5E69",
"m  c #765763",
"M  c #725D72",
"N  c #486E7B",
"B  c #7D626C",
"V  c #7A6469",
"C  c #786675",
"Z  c #696371",
"A  c #81543F",
"S  c #835543",
"D  c #845A46",
"F  c #855C4A",
"G  c #8A5D4A",
"H  c #885A47",
"J  c #835C56",
"K  c #8C614D",
"L  c #87654C",
"P  c #91654E",
"I  c #8C6453",
"U  c #8E6B53",
"Y  c #85615C",
"T  c #8A645C",
"R  c #896955",
"E  c #936A55",
"W  c #936C5A",
"Q  c #976A57",
"!  c #94725C",
"~  c #9C735D",
"^  c #987659",
"/  c #8F7059",
"(  c #A1755C",
")  c #A4795E",
"_  c #846464",
"`  c #82636B",
"'  c #8C6B6D",
"]  c #8A6966",
"[  c #946C65",
"{  c #8B7766",
"}  c #9C7562",
"|  c #9D7C63",
" . c #9D7A6B",
".. c #977468",
"X. c #846A73",
"o. c #8B6C73",
"O. c #836974",
"+. c #8D727A",
"@. c #8B7376",
"#. c #947474",
"$. c #92747B",
"%. c #9B7C7D",
"&. c #9A7A77",
"*. c #A47B64",
"=. c #AA7C63",
"-. c #A37D6A",
";. c #A37563",
":. c #A17E78",
">. c #805E62",
",. c #758377",
"<. c #9E8267",
"1. c #918474",
"2. c #AC8266",
"3. c #A4836C",
"4. c #AA856D",
"5. c #AB8B6E",
"6. c #A38266",
"7. c #B4876C",
"8. c #AC8572",
"9. c #AD8C74",
"0. c #A78775",
"q. c #B38C74",
"w. c #B28D7A",
"e. c #B68A75",
"r. c #AE9076",
"t. c #AB937C",
"y. c #B39275",
"u. c #BB9374",
"i. c #B4947B",
"p. c #BA947B",
"a. c #B6987E",
"s. c #BC9A7E",
"d. c #BC9A77",
"f. c #C29C7C",
"g. c #117390",
"h. c #326E8C",
"j. c #136B95",
"k. c #786B83",
"l. c #7D7288",
"z. c #737294",
"x. c #5B769E",
"c. c #877787",
"v. c #9B7D82",
"b. c #87788D",
"n. c #308399",
"m. c #0A8CB4",
"M. c #0C8FB5",
"N. c #2086AA",
"B. c #4E8296",
"V. c #748890",
"C. c #5593AD",
"Z. c #798CB5",
"A. c #7391AB",
"S. c #5CACA8",
"D. c #13A4C6",
"F. c #36BCDA",
"G. c #59B5D0",
"H. c #1BD6E8",
"J. c #2CD8EA",
"K. c #58E1EF",
"L. c #9A8585",
"P. c #8A829A",
"I. c #948899",
"U. c #928C8A",
"Y. c #A38582",
"T. c #A78B86",
"R. c #AD9789",
"E. c #BB9C83",
"W. c #B2958B",
"Q. c #B79986",
"!. c #B09D95",
"~. c #BDA185",
"^. c #BDA38C",
"/. c #BDA98B",
"(. c #BCA494",
"). c #8686A7",
"_. c #8594BB",
"`. c #9695AC",
"'. c #B1AEA9",
"]. c #C19E83",
"[. c #C29E8C",
"{. c #C3A284",
"}. c #C3A68B",
"|. c #C5AA8E",
" X c #CAAB8D",
".X c #CAA58A",
"XX c #C5AB92",
"oX c #CBAD93",
"OX c #C4A999",
"+X c #CDB295",
"@X c #CAB79B",
"#X c #D2B395",
"$X c #D3B49A",
"%X c #D4BB9C",
"&X c #DABC9C",
"*X c #D6BA96",
"=X c #D3AC8A",
"-X c #CDB6A2",
";X c #D4BDA3",
":X c #DBBDA4",
">X c #C9AFA0",
",X c #92C1BF",
"<X c #DCC29E",
"1X c #D4C2A5",
"2X c #DBC4A4",
"3X c #DBC5AA",
"4X c #DDCBAD",
"5X c #D6C5AA",
"6X c #DECCB1",
"7X c #DACBBE",
"8X c #D7CCB3",
"9X c #E3CBAC",
"0X c #E5C9A8",
"qX c #E8D3AF",
"wX c #E2CEB2",
"eX c #E8CCB3",
"rX c #E4D2B4",
"tX c #EAD4B4",
"yX c #E3D5B8",
"uX c #E9D6BA",
"iX c #ECDABB",
"pX c #E6D9BB",
"aX c #F3DCBB",
"sX c #F6DCB6",
"dX c #F6E3BC",
"fX c #8C9EC7",
"gX c #A2A9C1",
"hX c #9BFDFD",
"jX c #EFDDC1",
"kX c #EDE3C5",
"lX c #F4E4C5",
"zX c #F7E8C9",
"xX c #FAEDD2",
"cX c #F6EDD2",
"vX c #FDF2D6",
"bX c #FEF5DA",
"nX c #FFF9DD",
"mX c #FBF2CF",
"MX c #FFFAE1",
"NX c None",
/* pixels */
"NXNXNXNXNXNXNXNXNXNXNXNXNXNXNXNXNXNXNXNXNXNXNXNXNXNXNXNXNXNXNXNXNXNXNXNXNXNXNXNXNXNXNXNXNXNXNXNXNXNXNXNXNXNXNXNXNXNXNXNXNXNXNXNX",
"NXNXNXNXNXNXNXNXNXNXNXNXNXNXNXNXNXNXNXNXNXNXNXNXNXNXNXNXNXNXNXNXNXNXNXNXNXNXNXNXNXNXNXNXNXNXNXNXNXNXNXNXNXNXNXNXNXNXNXNXNXNXNXNX",
"NXNXNXNXNXNXNXNXNXNXNXNXNXNXNXNXNXNXNXNXNXNXNXNXNXNXNXNXNXNX3.NXNXNXNXNXNXNXNXNXNXNXNXNXNXNXNXNXNXNXNXNXNXNXNXNXNXNXNXNXNXNXNXNX",
"NXNXNXNXNXNXNXNXNXNXNXNXNXNXNXNXNXNXNXNXNXNXNXNXNXNXNXNXNXvXzXQ.] NXNXNXNXNXNXNXNXNXNXNXNXNXNXNXNXNXNXNXNXNXNXNXNXNXNXNXNXNXNXNX",
"NXNXNXNXNXNXNXNXNXNXNXNXNXNXNXNXNXNXNXNXNXNXNXNXNXNXNXNX/.mXmX^.] C NXNXNXNXNXNXNXNXNXNXNXNXNXNXNXNXNXNXNXNXNXNXNXNXNXNXNXNXNXNX",
"NXNXNXNXNXNXNXNXNXNXNXNXNXNXNXNXNXNXNXNXNXNXNXNXNXNXNXNXdXmXzX~.T _ NXNXNXNXNXNXNXNXNXNXNXNXNXNXNXNXNXNXNXNXNXNXNXNXNXNXNXNXNXNX",
"NXNXNXNXNXNXNXNXNXNXNXNXNXNXNXNXNXNXNXNXNXNXNXNXNXNX~.f.qXaXqXt.R _ V NXNXNXNXNXNXNXNXNXNXNXNXNXNXNXNXNXNXNXNXNXNXNXNXNXNXNXNXNX",
"NXNXNXNXNXNXNXNXNXNXNXNXNXNXNXNXNXNXNXNXNXNXNXNXNXzX1X5. X*X|.0.R l : #.NXNXNXNXNXNXNXNXNXNXNXNXNXNXNXNXNXNXNXNXNXNXNXNXNXNXNXNX",
"NXNXNXNXNXNXNXNXNXNXNXNXNXNXNXNXNXNXNXNXNXNXNXNX4.*X$X2.y.9.3.W I J l } m c NXNXNXNXNXNXNXNXNXNXNXNXNXNXNXNXNXNXNXNXNXNXNXNXNXNX",
"NXNXNXNXNXNXNXNXNXNXNXNXNXNXNXNXNXNXNXNXNXNXNXa.2.f.&X0X X9.8.;.W } ;.Q 6 s k.NXNXNXNXNXNXNXNXNXNXNXNXNXNXNXNXNXNXNXNXNXNXNXNXNX",
"NXNXNXNXNXNXNXNXNXNXNXNXNXNXNXNXNXNXNXNXNX1.t.lX].u.f.f.=X=X.Xf.:.;.Q H g _ #.NXNXNXNXNXNXNXNXNXNXNXNXNXNXNXNXNXNXNXNXNXNXNXNXNX",
"NXNXNXNXNXNXNXNXNXNXNXNXNXNXNXNXNXNXNXNX/.Q.<X1XeX].) 7.u.7.2.;.Q S G J ;.#.J ` x.NXNXNXNXNXNXNXNXNXNXNXNXNXNXNXNXNXNXNXNXNXNXNX",
"NXNXNXNXNXNXNXNXNXNXNXNXNXNXNXNXNXNX'.dX4XoXqXE.%X2XoXs.e.( P P G Q [ [ [ J J ` >.).fX_.NXNXNXNXNXNXNXNXNXNXNXNXNXNXNXNXNXNXNXNX",
"NXNXNXNXNXNXNXNXNXNXNXNXNXNXNXNX1.t.dXnXzX4X=XqX#X#X2X0X&Xi.7.*.=.:. .T >.' T J ' #.b.Z.x.NXNXNXNXNXNXNXNXNXNXNXNXNXNXNXNXNXNXNX",
"NXNXNXNXNXNXNXNXNXNXNXNXNXNXNX{ 1XmXvXcXmXkX@X+X0X#X.X*X0XoXE.i.e.T.-.[ [ T S g ' $.v.b.Z.x.NXNXNXNXNXNXNXNXNXNXNXNXNXNXNXNXNXNX",
"NXNXNXNXNXNXNXNXNXNXNXNXNXNX1.@XnXvXpXdXvXnXcX;Xd.f..X X*Xp.2.*.=.w.=.[ [ J >.&.#.$.+.c.b.fXfXNXNXNXNXNXNXNXNXNXNXNXNXNXNXNXNXNX",
"NXNXNXNXNXNXNXNXNXNXNXNXNXR.5XmXmXyXyXcXMXnXnXMX4X;X~.4.].{.E.q.-.:...J #.v.v.T.v.%.$.c.b.b.fXx.NXNXNXNXNXNXNXNXNXNXNXNXNXNXNXNX",
"NXNXNXNXNXNXNXNXNXNXNXNXNXrXmXdXyXpXbXMXMXMXnXkXnXMXcX5XoXoXXXOXOX[.[.Q.W.W.W.v.:.%.$.+.c.b._.fXNXNXNXNXNXNXNXNXNXNXNXNXNXNXNXNX",
"NXNXNXNXNXNXNXNXNXNXNXNX/.8XrX5XpXvXnXnXMXMXMXkXxXbXbXxXpXpXuXuX9X-X>X>XOXW.T.T.v.v.$.o.c.c.b.fX_.NXNXNXNXNXNXNXNXNXNXNXNXNXNXNX",
"NXNXNXNXNXNXNXNXNXNXNXL <XdXrXpXbXbXnXbXMXcXdXbXbXbXbXcXpXyXwX6X-XOX>X>XOX[.W.T.v.v.v.o.O.` k.)._._.NXNXNXNXNXNXNXNXNXNXNXNXNXNX",
"NXNXNXNXNXNXNXNXNXNXU U %XaXlXzXxXbXbXbXMXvXzXvXbXvXxXlXyXyX6X6X;X(.>X>XOX(.W.L.v.v.$.o.X.O.O.b._.).c X NXNXNXNXNXNXNXNXNXNXNXNX",
"NXNXNXNXNXNXNXNXNXt.~.y.%XyXaXlXzXxXxXxXcXbXvXvXxXxXcXjXyXyX6X6X5X-X>XOX(.(.W.T.v.v.$.o.O.O.n k._.b.c n NXNXNXNXNXNXNXNXNXNXNXNX",
"NXNXNXNXNXNXNXNX|./.{.#X%X4XiXiXlXlXcXxXyX8XcXxXxXxXkXyXwX6X6X4X3X;X>X>XOX(.W.T.v.$.+.O.O.B m c.b.b.z.n c NXNXNXNXNXNXNXNXNXNXNX",
"NXNXNXNXNXNXNXNXsX<Xy.<X5XrXyXyXjXjXlXzXpX6XzXzXzXzXpX4X6X9X3X3X3X:X>X>XOXW.T.Y.$.$.+.O.O.B n C b.fXb.m o.NXNXNXNXNXNXNXNXNXNXNX",
"NXNXNXNXNXNXNXNXzXrX#X#X1X8X6XrXyXpXiXpXiXuXrX8XiXlX4X|./.yXkX^...3.Q.R.W.W.T.L.$.+.o.O.` ` m m z.b.c.j V NXNXNXNXNXNXNXNXNXNXNX",
"NXNXNXNXNXNXNX!.8XdX&X~.-X5X5X6X6XrXyX@X1XrXqX9XrXiX1X;XkXmXvXrX;XQ.] Y.R.T.Y.%.v.o.o.` O.M M m b.c 3 j j NXNXNXNXNXNXNXNXNXNXNX",
"NXNXNXNXNXNXNXT.;XlX*X^ @X1X1X1X4X9XrX5X3XqXqX9X9X@X5XuX Xf.a.r.[.oXQ._ $.v.$.$.+.O.` O.` M m h z.C r j h NXNXNXNXNXNXNXNXNXNXNX",
"NXNXNXNXNXNXNXU.t.+XaX<XQ.@X;X1X1X5X1X9XrX4X4X4X3.@X%Xu.y.u z u l q.].w.] ` $.#.O.` n n n m v c 3 p j b c.NXNXNXNXNXNXNXNXNXNXNX",
"NXNXNXNXNXNXNXNXr.i.|.sXqX{.}.;X1X1X/.1X4X5X4X2X5X4X<Xr.1.n.N.g.h.' } p.k d ` o.` ` ` n n m m 4 s >.j m c.NXNXNXNXNXNXNXNXNXNXNX",
"NXNXNXNXNXNXNXNX .0.E.&XsXsX=Xy.@X@X~.%X4X2X%X|.9Xs.<.,.g.m.M.M.g.N T 2.[ l m ` ` ` n n m f % J >.J n ` f NXNXNXNXNXNXNXNXNXNXNX",
"NXNXNXNXNXNXNXNX1 L y.s.=XtXdX<Xr.a.r.|.&X%X@Xt.<X<.u 9 m.H.K.F.M.n._ ;.-.J s >.` n b h h Y ] T g j m p V NXNXNXNXNXNXNXNXNXNXNX",
"NXNXNXNXNXNXNXNX ./ i i.p.u.<XdXsXqX5.t.^.}.^.r.=X<.w 9 M.J.hXK.D.n.' =.=.l e b m r l T [ [ J g j s 6 p Z NXNXNXNXNXNXNXNXNXNXNX",
"NXNXNXNXNXNXNXNXNX..W L *.7.q.f.*XdXdXdXdX*X^ u.f.d.5.,.N.J.J.J.D.B.W ;.@ % t S [ [ ;...T j S d 6 & d I.NXNXNXNXNXNXNXNXNXNXNXNX",
"NXNXNXNXNXNXNXNXNXNXi K H < Q e.7.u.f.<XdXlXdXsX<X6.<./ w h.S.S.1.1.W = T -.:.8.8.T J J g y 6 $ & = a C NXNXNXNXNXNXNXNXNXNXNXNX",
"NXNXNXNXNXNXNXNXNXNXr.R K H S < H 7.2.e.d.u.f.=XqX0X<X<X X X.X{.~.s.p.u.].;.Q T J J J r = = $ $ 6 6 s C NXNXNXNXNXNXNXNXNXNXNXNX",
"NXNXNXNXNXNXNXNXNXNXE.i.5.I D H D A < ( 7.7.2.2.7.u.7.7.2.2.=.) *.) ~ Q I K I I S = - : = = + 4 6 e c l.NXNXNXNXNXNXNXNXNXNXNXNX",
"NXNXNXNXNXNXNXNXNXNX~.E.a.a.} F K D S H H H A , P 2.2.2.=.) ) ( Q [ Q S - > S = > : = = $ % 0 0 s s V P.NXNXNXNXNXNXNXNXNXNXNXNX",
"NXNXNXNXNX(.uXtX1X|.Q.r.t.|.s.r.5.P A S H L H H L P P P K G G G G S S S > 6 > = = % % 4 0 p f V c c C c.k.k.l.P.NXNXNXNXNXNXNXNX",
"NXNXNXNXNX9XiXzX4X~.5.< Y R.1./ E..X|.5.U L A 1 , A A G *.~ ! E H S y = $ 4 $ 6 0 e p m n v u u q q Z P.k.k.k.).gXNXNXNXNXNXNXNX",
"NXNXNX%X9XiXlXlX2Xa.5.<.2 7 V.!. .+X+X+X+X Xf.) H K K 2.sXqX&X{.=.J y $ 4 6 d J l h V X.X.1.B.8 w q Z l.C k.k.P.`.P.NXNXNXNXNXNX",
"NXNX3.^.uXrXtXrX+X9.| / x 8 h.x.8XXX+X$X+XXX|.].p.eXxXaX2X2X<X#X:X$X-.J 6 6 a b k j X.V V.,Xm.m.h.5 5 q M M C C @.U.l.NXNXNXNXNX",
"NXNXp.i.9.4.5.4.5.*.L R 7 j.h.C.(.0.XX$X+X X{.5.9XjXiX XP ( ) Q =..X{. .R t 6 h V ' $.z 7 9 M.N.h.x 3 4 s s h s h B `.NXNXNXNXNX",
"NXi.p.q.4.3.6.-.3./ i U 7 B.N.C.7X^.@X$X+X|.s.r.tXeXp.^ G < , 1 A Q 4.E...k t 0 j o.$.L.V.M.D.G.k.3 s 4 s s h h m B '.NXNXNXNXNX",
"NX].E.y.5.6.6.2.6./ i L C P.C.C.'.(.$X$XoX~.a.uX&Xy.E : O   .   o , ~ 8.y. .i 0 e ` o.T.A.D.F.C.k.s 4 4 6 s s h h n I.`.NXNXNXNX",
"NX9.*.^ ( ) ) 2.( L i ..9./ 1.V.V.XX$X+XoXE.~.4Xd.E 1 O ; o o O O + H Q 9. .k r e ` o.c.V.h.C.x 5 p 4 4 r s d h h j k I.NXNXNXNX",
"NXH H G K H K K K F ! i.0.<.0.9.4.[.oXoXE.oXeXoXr.U @ . o + + * @ @ : ~ w. .Y l 0 V ' B c w 0 0 p s 6 4 3 r d d g g h U.NXNXNXNX",
"NXK G I I I P P L L ^ E.t.E.r.<.r.0.{.{.i.|.4Xi.U D @ . . o + @ * 1 > W w.8.[ j 3 m ` B v f p g h h a 3 3 t t a f f w NXNXNXNXNX",
"NX*.6.! U ! 6.2.6.! / Q.E.~.~.a.9.<.E.E.y.E.6Xw.U L : . o + @ * * > , I e.W.&.g $ h _ b k l j X.b d 6 6 d a h b _ C c NXNXNXNXNX",
"NX}.a.0.9.9.#X*X*X X5.^ w.|.oX~.r.5.a.s.5.a.3Xi.E F : . o @ * * * S 6 G 7.Q. .g % a b m j j _ #.j 3 4 j _ ' ' ' c.I.C NXNXNXNXNX",
"NXp.|  .s.9.0X0X0X:XoX9.~ 4.a.a.~.f.s.a.<.r.;Xy.U F 1 o o + * * - > - G 8.Q.&.g # t h ' o.j b d 6 6 j #.#.#.[ $.I.b.C NXNXNXNXNX",
"NXNX5.q.i.| #XaXaX9X0X0X.X6.! ) u.f.f.f.5.5.&Xr.L D : . o + * * = > & H e.].0.h # e g _ ` g 6 j J [ :.:.&.W.{ C c.M NXNXNXNXNXNX",
"NXNXNX3.W R E.XXeXlXuX0XiX2X*Xy.L 6..Xd.6.6.2X X9.R : o O * * * > > + S =.Q.3.g O t r t e r _ :.Y.T.T.(.OX@.B V c c NXNXNXNXNXNX",
"NXNXNXNXF L a.a.~.+X3XaXiXqXtX0Xf..Xy.U D *.&X&X{.E @ . O * - - - * * [.$X[.:.g O # k ..#.:.Q.W.W.[.W.&.%.s O.l.c NXNXNXNXNXNXNX",
"NXNXNXNXNXNXQ.E.r.r.}.;X#XuXlXsXtXqX<X|.<.E ]..Xq.L 1 @ 1 i D L Q G Q $X.Xq.} g 0 k  .R.W.OXOXOXY.#.' m h s V C NXNXNXNXNXNXNXNX",
"NXNXNXNXNXNXNX! | r.E.].Q.}.XX;XcXlXdXaX X6.9.-.! i : < L I P Q Q Q Q e.8.;.R y g T.OX-X-X!.#. .a r k j j f f NXNXNXNXNXNXNXNXNX",
"NXNXNXNXNXNXNXNXi / i.E.i.q.9.a.}.}.}.a.~. XE.8.F > , E ~ ;.( ~ } Q T ;.9.4.[ l y '  .#.&.o.J k e a m f # NXNXNXNXNXNXNXNXNXNXNX",
"NXNXNXNXNXNXNXNXNXNXNX/ 6.y.y.9.r.0.9.! } t.E.3.W R W *.8.8.4.4.8.8.9.3.w.8. .' : t h >.b J k k f % & NXNXNXNXNXNXNXNXNXNXNXNXNX",
"NXNXNXNXNXNXNXNXNXNXNXNXNX/ ! 0.0.r.w.W F ! Q.0.} F H ~ ;.=.=.=.) *.;.=.w.-.T i t % g k k j g # NXNXNXNXNXNXNXNXNXNXNXNXNXNXNXNX",
"NXNXNXNXNXNXNXNXNXNXNXNXNXNXNXNX3.F i D K } i.r.R W -.w.e.e.q.q.q.4.4.6.q.} J y : % t $ % NXNXNXNXNXNXNXNXNXNXNXNXNXNXNXNXNXNXNX",
"NXNXNXNXNXNXNXNXNXNXNXNXNXNXNXNXNXNXNXNXNXNXr.9.3.} 3.Q.E.E.a.a.y.i.9.4.q./ y y NXNXNXNXNXNXNXNXNXNXNXNXNXNXNXNXNXNXNXNXNXNXNXNX",
"NXNXNXNXNXNXNXNXNXNXNXNXNXNXNXNXNXNXNXNXNXNXS , , F W } ;.-.;.;.~ ~ Q L < > y l NXNXNXNXNXNXNXNXNXNXNXNXNXNXNXNXNXNXNXNXNXNXNXNX",
"NXNXNXNXNXNXNXNXNXNXNXNXNXNXNXNXNXNXNXNXNXNXNXNXNXNXNXNXNXNXNXNXNXNXNXNXNXNXNXNXNXNXNXNXNXNXNXNXNXNXNXNXNXNXNXNXNXNXNXNXNXNXNXNX",
"NXNXNXNXNXNXNXNXNXNXNXNXNXNXNXNXNXNXNXNXNXNXNXNXNXNXNXNXNXNXNXNXNXNXNXNXNXNXNXNXNXNXNXNXNXNXNXNXNXNXNXNXNXNXNXNXNXNXNXNXNXNXNXNX",
"NXNXNXNXNXNXNXNXNXNXNXNXNXNXNXNXNXNXNXNXNXNXNXNXNXNXNXNXNXNXNXNXNXNXNXNXNXNXNXNXNXNXNXNXNXNXNXNXNXNXNXNXNXNXNXNXNXNXNXNXNXNXNXNX"
};
