/* XPM */
static char *cd0c4c3e1b934156dbc96e8cb01a84afFvwYbqCOWxAvMOo8[] = {
/* columns rows colors chars-per-pixel */
"64 64 247 2 ",
"   c None",
".  c black",
"X  c #000002",
"o  c #060606",
"O  c #09090A",
"+  c #090A0F",
"@  c #090A10",
"#  c #0C0D15",
"$  c #0D0D15",
"%  c #0D0E15",
"&  c #0D0E17",
"*  c #0E0F16",
"=  c #0E0F17",
"-  c #131415",
";  c #131416",
":  c #101119",
">  c #11121A",
",  c #11121B",
"<  c #12131A",
"1  c #13141B",
"2  c #151618",
"3  c #161719",
"4  c #14151C",
"5  c #17181A",
"6  c #17191B",
"7  c #17191C",
"8  c #18191B",
"9  c #18191C",
"0  c #191A1C",
"q  c #181A1D",
"w  c #191A1D",
"e  c #191B1D",
"r  c #1A1B1D",
"t  c #191B1F",
"y  c #1A1B1E",
"u  c #1A1C1D",
"i  c #1A1C1E",
"p  c #1B1C1E",
"a  c #1B1D1F",
"s  c #1C1D1F",
"d  c #1B1D20",
"f  c #1C1D20",
"g  c #1C1E20",
"h  c #1C1E21",
"j  c #1D1E21",
"k  c #1E1F22",
"l  c #1C1D2C",
"z  c #1D1F2C",
"x  c #1D1F2D",
"c  c #1F212E",
"v  c #1E202F",
"b  c #212325",
"n  c #222325",
"m  c #222326",
"M  c #222427",
"N  c #232528",
"B  c #242629",
"V  c #25272A",
"C  c #20222F",
"Z  c #26282B",
"A  c #27292D",
"S  c #272A2D",
"D  c #252731",
"F  c #282A32",
"G  c #2E2F30",
"H  c #2F2F30",
"J  c #26283B",
"K  c #2F3031",
"L  c #2E3135",
"P  c #2F3135",
"I  c #2F3136",
"U  c #353536",
"Y  c #353636",
"T  c gray21",
"R  c #343740",
"E  c #32354E",
"W  c #32354F",
"Q  c #333650",
"!  c #333651",
"~  c #343750",
"^  c #343751",
"/  c #353852",
"(  c #363953",
")  c #373A56",
"_  c #373B56",
"`  c #3B3E53",
"'  c #383B57",
"]  c #393C57",
"[  c #3A3D58",
"{  c #3A3D59",
"}  c #3A3E5A",
"|  c #3D4046",
" . c #3D4055",
".. c #3F4258",
"X. c #3F4259",
"o. c #3F435A",
"O. c #41444A",
"+. c #42454B",
"@. c #42464C",
"#. c #40445B",
"$. c #42465D",
"%. c #44485D",
"&. c #4B4F5B",
"*. c #4D515D",
"=. c #4F535F",
"-. c #50555C",
";. c #51555C",
":. c #51565D",
">. c #52575E",
",. c #53575F",
"<. c #53585F",
"1. c #404463",
"2. c #414464",
"3. c #434767",
"4. c #474B6B",
"5. c #484C68",
"6. c #494D6E",
"7. c #494D6F",
"8. c #4A4E6F",
"9. c #4F546B",
"0. c #4C506E",
"q. c #515664",
"w. c #535860",
"e. c #545860",
"r. c #545960",
"t. c #545961",
"y. c #555961",
"u. c #555A61",
"i. c #565A61",
"p. c #555A62",
"a. c #565A62",
"s. c #565B62",
"d. c #565B63",
"f. c #575B63",
"g. c #575C63",
"h. c #5A5E67",
"j. c #5A5F67",
"k. c #5A5F68",
"l. c #585D6F",
"z. c #4E5270",
"x. c #4E5371",
"c. c #4F5470",
"v. c #4F5472",
"b. c #505470",
"n. c #505571",
"m. c #505472",
"M. c #515572",
"N. c #515672",
"B. c #525673",
"V. c #525773",
"C. c #525774",
"Z. c #535874",
"A. c #595E70",
"S. c #5A5F71",
"D. c #585D74",
"F. c #595E76",
"G. c #5B6068",
"H. c #5B6069",
"J. c #5C6169",
"K. c #5C616A",
"L. c #5F646D",
"P. c #5F656D",
"I. c #5D6277",
"U. c #5E6378",
"Y. c #5E6478",
"T. c #5C617E",
"R. c #5D627F",
"E. c #5D637F",
"W. c #60666E",
"Q. c #676B71",
"!. c #636976",
"~. c #686C72",
"^. c #696C73",
"/. c #6A6D74",
"(. c #60657A",
"). c #656A7A",
"_. c #656B7A",
"`. c #656B7B",
"'. c #666B7B",
"]. c #676D7B",
"[. c #666B7C",
"{. c #666C7C",
"}. c #676C7C",
"|. c #676D7C",
" X c #696F78",
".X c #6A6F78",
"XX c #6A6F79",
"oX c #686E7B",
"OX c #686E7C",
"+X c #696E7D",
"@X c #696F7D",
"#X c #6A6F7D",
"$X c #6A7079",
"%X c #6D727E",
"&X c #6D737E",
"*X c #5D6380",
"=X c #5E6380",
"-X c #5E6481",
";X c #5F6481",
":X c #6F7580",
">X c #707680",
",X c #717780",
"<X c #717781",
"1X c #727881",
"2X c #717882",
"3X c #727882",
"4X c #727982",
"5X c #737982",
"6X c #737983",
"7X c #737A83",
"8X c #737A84",
"9X c #747A84",
"0X c #7A818C",
"qX c #7B828D",
"wX c #7D848F",
"eX c #7E8590",
"rX c #7E8591",
"tX c #7F8691",
"yX c #7F8692",
"uX c #7F8693",
"iX c #818994",
"pX c #838A95",
"aX c #8F9194",
"sX c #909295",
"dX c #919295",
"fX c #929396",
"gX c #878FA0",
"hX c #8B93A0",
"jX c #8B93A6",
"kX c #8C93A7",
"lX c #8C94A6",
"zX c #8C94A7",
"xX c #8D94A8",
"cX c #8D95A8",
"vX c #98A1AD",
"bX c #98A1AE",
"nX c #99A1AE",
"mX c #99A2AF",
"MX c #9CA5B3",
"NX c #9DA6B4",
"BX c #9FA8B6",
"VX c #A2A3A5",
"CX c #A3A4A5",
"ZX c #A4A5A6",
"AX c #A5A6A7",
"SX c #A1AAB8",
"DX c #A8B1C0",
/* pixels */
"                                                                                                                                ",
"                                                                                                                                ",
"                                                        . . . . . . . .                                                         ",
"                                                        8 0 0 0 0 0 0 8                                                         ",
"                                                . . . 0 @.r.w.>.>.w.r.@.0 . . .                                                 ",
"                                                8 0 8 L K.9X3X3X3X3X9XK.L 8 0 8                                                 ",
"                                        . . . 0 @.r.>.j.XX3X3X<X<X3X3XXXj.>.r.@.0 . . .                                         ",
"                                        8 0 8 L K.9X3X:XOX`.`.{.{.`.`.OX:X3X9XK.L 8 0 8                                         ",
"                                    . 5 +.r.>.j.XX3X3XOXF.N.N.N.N.N.N.F.OX3X3XXXj.>.r.+.5 .                                     ",
"                                    3 L H.8X3X:XOX{.{.Y.z.2.' ~ ~ ' 2.z.Y.{.{.OX:X3X8XH.L 3                                     ",
"                                . 5 +.H.$X3X3XOXF.N.N.N.8.] x * * x ] 8.N.N.N.F.OX3X3X$XH.+.5 .                                 ",
"                                3 L H.3X<X&XOXA.#.Q Q . . . . . . . . . . Q Q #.A.OX&X<X3XH.L 3                                 ",
"                            . 5 +.H.$X<X<XOXF.#.v * * . . . . . . . . . . * * v #.F.OX<X<X$XH.+.5 .                             ",
"                            . i r.8X<X&XXXU.z.Q > . . . . . . . . . . . . . . > Q z.U.XX&X<X8Xr.i .                             ",
"                            . i r.3X<X].F.z.8.~ > . . . . . . . . . . . . . . > ~ 8.z.F.].<X3Xr.i .                             ",
"                            3 L j.<X<X`.N.8.v. .1 . . . . . . . . . . . . . . 1  .v.8.N.`.<X<Xj.L 3                             ",
"                        . 5 +.K.XX<X<X`.N.N.(.=.0 . . . . . . . . . . . . . . 0 =.(.v.N.`.<X<XXXK.+.5 .                         ",
"                        . i r.8X<X&XOXl.#.%.!.r.i . . . . . . . . . . . . . . g r.!.%...l.OX&X<X8Xr.i .                         ",
"                        . i r.3X<XOXF...x F k.r.g . . . . . . . . . . . . . . g r.k.F x ..F.OX<X3Xr.i .                         ",
"                        . 0 >.3X3X{.C.Q * i r.r.g . . . . . . . . . . . . . . g r.r.i * Q C.{.3X3X>.0 .                         ",
"                        . 0 >.3X3X{.Z.~ * i r.r.g . . . . . . . . . . . . . . g r.r.i = ~ Z.{.3X3X>.0 .                         ",
"                        3 L j.:XOXA.$.J @ i r.r.g . . . . . . . . . . . . . . g r.r.s @ J $.A.OX:Xj.L 3                         ",
"                    . 5 +.K.XXOXF.#.C + . s r.r.g . . . . . . . . . . . . . . g r.r.s . @ C #.F.OXXXK.+.5 .                     ",
"                    . i r.9X3X`.N.~ > . . g r.r.g . . . . . . . . . . . . . . g r.r.g . . > ~ N.`.3X9Xr.i .                     ",
"                    . i r.3X3X`.N.~ > . . d r.r.d . . . . . . . . . . . . . . g r.r.g . . > ~ N.`.3X3Xr.i .                     ",
"                    . 0 >.3X<X[.N.~ > . . m /./.m . . . . . . . . . . . . . . g r.r.g . . > ~ N.[.<X3X>.0 .                     ",
"                    . 0 >.3X<X[.N.~ > . . K sXsXK . . . . . . . . . . . . . . g r.r.g . . > ~ N.[.<X3X>.0 .                     ",
"                    . 0 >.3X<X[.N.~ > . . K sXsXK . . . . . . . . . . . . . . g r.r.g . . > ~ N.[.<X3X>.0 .                     ",
"                    . 0 >.3X<X[.N.~ > . . m ^.^.m . . . . . . . . . . . . . . d r.r.d . . > ~ N.[.<X3X>.0 .                     ",
"                    . 0 >.3X<X[.N.~ > . . m Q.Q.m . . . . . . . . . . . . . . m ^.^.m . . > ~ N.[.<X3X>.0 .                     ",
"                    . 0 >.3X<X[.N.~ > . . H aXaXH . . . . . . . . . . . . . . H sXsXK . . > ~ N.[.<X3X>.0 .                     ",
"                    . 0 >.3X<X[.N.~ > . . U ZXZXU . . . . . . . . . . . . . . U ZXZXU . . > ~ N.[.<X3X>.0 .                     ",
"                    . 0 >.3X<X[.N.~ > . . U CXCXU . . . . . . . . . . . . . . U CXCXU . . > ~ N.[.<X3X>.0 .                     ",
"                    . 0 >.3X<X[.N.~ > . . U CXCXU . . . . . . . . . . . . . . U VXVXU . . > ~ N.[.<X3X>.0 .                     ",
"                    . 0 >.3X<X[.N.~ > . . U ZXZXU . . . . . . . . . . . . . . U VXVXU . . > ~ N.[.<X3X>.0 .                     ",
"                    . 0 >.3X<X[.N.~ > . . H sXsXH . . . . . . . . . . . . . . U VXVXU . . > ~ N.[.<X3X>.0 .                     ",
"                    . 0 >.3X<X[.N.~ > . . m ^.^.m . . . . . . . . . . . . . . U VXVXU . . > ~ N.[.<X3X>.0 .                     ",
"                    . 0 >.3X<X[.N.~ > . . d r.r.d . . . . . . . . . . . . . . U CXCXU . . > ~ N.[.<X3X>.0 .                     ",
"                    . 0 >.3X<X[.N.~ > . . g r.r.g . . . . . . . . . . . . . . U ZXZXU . . > ~ N.[.<X3X>.0 .                     ",
"                    . 0 >.3X<X[.N.~ > . . g r.r.g . . . . . . . . . . . . . . H aXaXH . . > ~ N.[.<X3X>.0 .                     ",
"                    . 0 >.3X<X[.N.~ > . . d r.r.d . . . . . . . . . . . . . . m Q.Q.m . . > ~ N.[.<X3X>.0 .                     ",
"                    . 0 >.3X<X[.N.~ > . . m ^.^.m . . . . . . . . . . . . . . m Q.Q.m . . > ~ N.[.<X3X>.0 .                     ",
"                    . 0 >.3X<X[.N.~ > . . H sXsXH . . . . . . . . . . . . . . H aXaXH . . > ~ N.[.<X3X>.0 .                     ",
"                    . 0 >.3X<X[.N.~ > . . U ZXZXU . . . . . . . . . . . . . . U ZXZXU . . > ~ N.[.<X3X>.0 .                     ",
"                    . 0 >.3X<X[.N.~ > . . U ZXZXU . . . . . . . . . . . . . . U ZXZXU . . > ~ N.[.<X3X>.0 .                     ",
"                    . 0 >.3X<X[.N.~ > . . H sXsXH . . . . . . . . . . . . . . H sXsXH . . > ~ N.[.<X3X>.0 .                     ",
"                    . 0 >.3X<X[.N.~ > . . m ^.^.m . . . . . . . . . . . . . . m ^.^.m . . > ~ N.[.<X3X>.0 .                     ",
"                    . 0 >.3X<X[.N.~ > . . d r.r.d . . . . . . . . . . . . . . d r.r.d . . > ~ N.[.<X3X>.0 .                     ",
"                    . 0 >.3X<X[.N.~ > . . g r.r.g . . . . . . . . . . . . . . g r.r.g . . > ~ N.[.<X3X>.0 .                     ",
"                    . 0 >.3X<X[.N.~ > . . g r.r.g . . . . . . . . . . . . . . g r.r.g . . > ~ N.[.<X3X>.0 .                     ",
"                    . 0 >.3X<X[.N.~ > . . g r.r.g . . . . . . . . . . . . . . g r.r.g . . > ~ N.[.<X3X>.0 .                     ",
"                    . 0 >.3X3X{.N.~ > . . g r.r.g . . . . . . . . . . . . . . g r.r.g . . > ~ N.{.3X3X>.0 .                     ",
"                    . 0 <.3X3X].N.~ > . . g g.j.g . . . . . . . . . . . . . . g g.g.g . . > ~ N.{.3X3X<.0 .                     ",
"                    . 7 &.{.`.I.z.) x * * D q.q.D * * . . . . . . . . . . * * D q.q.D * * x ) 0.I.`.{.&.7 .                     ",
"                . . . > ` N.9.0.4.1.) W W { 5.5.{ W W { 5.5.] W W { 5.5.{ W W { 5.5.{ W W ) 1.4.0.v.N.` > . . .                 ",
"                N V Z R 9.*XT.T.T.T.;X;X;X*XT.T.*X;X;X*XT.T.T.;X;X*XT.T.*X;X;X*XT.T.*X;X;X;XT.T.T.T.*X9.R Z Z N                 ",
"            . M P.0X0XuXgXzXkXjXzXzXcXcXcXcXzXzXzXzXzXzXzXzXcXcXcXcXzXzXcXcXcXcXzXzXzXzXcXcXzXzXjXkXzXgXuX0X0XW.N .             ",
"            . S wXDXBXmXmXmXmXmXmXmXmXmXmXmXmXmXmXmXmXmXmXmXmXmXmXmXmXmXmXmXmXmXmXmXmXmXmXmXmXmXmXmXmXmXmXMXNX3XV .             ",
"            . S wXSXhXuXuXuXuXuXuXuXuXuXuXuXuXuXuXwXuXuXuXuXuXuXuXuXuXuXuXuXuXuXwXwXuXuXuXuXuXuXuXuXuXuXuXpXpXP.g .             ",
"            . g j.3XK.>.>.>.>.>.>.>.>.>.>.>.>.>.>.>.>.>.>.>.>.>.>.>.>.>.>.>.>.>.>.>.>.>.>.>.>.>.>.>.>.>.>.>.<.| - .             ",
"            . O g N g 0 0 0 0 0 0 0 0 0 0 0 0 0 0 0 0 0 0 0 0 0 0 0 0 0 0 0 0 0 0 0 0 0 0 0 0 0 0 0 0 0 0 0 0 - o .             ",
"            . . . . . . . . . . . . . . . . . . . . . . . . . . . . . . . . . . . . . . . . . . . . . . . . . . . .             ",
"                                                                                                                                ",
"                                                                                                                                "
};
