/* XPM */
static char *result[] = {
/* columns rows colors chars-per-pixel */
"38 38 5 1 ",
"  c #141B1B",
". c #D14B34",
"X c #D78B4A",
"o c #F1C471",
"O c white",
/* pixels */
"                                      ",
"                                      ",
"                                      ",
"                                      ",
"                                      ",
"                                      ",
"             O                        ",
"            OOO        o              ",
"             O                        ",
"                           oo         ",
"        oo       oooo     oooo        ",
"       oooo   oooooooooo ooXXo        ",
"       oXoo ooooooooooooooXXXo        ",
"       oXXoooooooooooooooooXXo        ",
"       oXXoooooooooooo  ooooX         ",
"       o ooooo  ooooo      ooo        ",
"        ooo      ooo        ooo  oo   ",
"       ooo        o   OOOO   oooooo   ",
"       oo  OOOO      OOOOOO  ooooo    ",
"   o  oo  OOOOOO     OOOOOO  oooX     ",
"   oo oo  OOOOOO     OOOOOO  oooooo   ",
"   ooooo  OOOOOO     OOOOOO  oooooo   ",
"    Xooo  OOOOOO      OOOO   oooXo    ",
"   ooooo   OOOO   ooo       ooooo     ",
"    Xoooo        o   o     oooXXoo    ",
"    oXoooo      ooo oooooooooXXX      ",
"   ooooooooooooooo   oooooooXXX    o  ",
"      Xoooooooooo OOO ooooXXXX    ooo ",
"    X  XXoooooooooOoOooooXXXXXooo  o  ",
"   XXX  XXXooooooooooXXXXXXXXooooo    ",
"  XXXoo   XXXXXXXXXXXXXXXXX.....ooo   ",
"  XXoooX    XXXXXXXXXXXXX..ooooo.ooo  ",
"  XoooXXo      .......XX.ooooooooooo  ",
"  XooXXooo    .....XXXX.oXooXooooooo  ",
"  XooXoooX   oXXXXXXXXX.OooOooo.ooo   ",
"   oXXooXX  ooooXXXXXXXOOoOOoo.X..    ",
"   oXoooX   oooooXXXXXXOX.O...XXXX    ",
"    XooXX  oooooooXXXXXXXXXXXXXXXo    "
};
