/* XPM */
static char *result[] = {
/* columns rows colors chars-per-pixel */
"64 64 209 2 ",
"   c #000A0F",
".  c #050E11",
"X  c #061116",
"o  c #0B1315",
"O  c #0D1619",
"+  c #0F181A",
"@  c #111817",
"#  c #141B1B",
"$  c #191E1D",
"%  c #1D211E",
"&  c #22231E",
"*  c #28281D",
"=  c #161F21",
"-  c #1D2323",
";  c #222521",
":  c #262922",
">  c #2B2C23",
",  c #212728",
"<  c #242B2B",
"1  c #282E2E",
"2  c #332C22",
"3  c #3E2F24",
"4  c #2F3026",
"5  c #323227",
"6  c #3D3225",
"7  c #363529",
"8  c #393729",
"9  c #3C3A2B",
"0  c #2C3233",
"q  c #353B3B",
"w  c #512F24",
"e  c #453626",
"r  c #423E2C",
"t  c #4C3B28",
"y  c #543F29",
"u  c #6D3328",
"i  c #46412E",
"p  c #49432F",
"a  c #5B442C",
"s  c #4B4531",
"d  c #4C4735",
"f  c #544B34",
"g  c #584E35",
"h  c #5B5136",
"j  c #5D5338",
"k  c #64482D",
"l  c #6C4A31",
"z  c #625135",
"x  c #615639",
"c  c #65593B",
"v  c #6A5D3C",
"b  c #785634",
"n  c #6F603E",
"m  c #71623F",
"M  c #3D4343",
"N  c #444A4A",
"B  c #4E5454",
"V  c #575C5C",
"C  c #756541",
"Z  c #7B6A46",
"A  c #7C6B44",
"S  c #79725F",
"D  c #5C6161",
"F  c #656A6A",
"G  c #7D7A6F",
"H  c #747878",
"J  c #797D7D",
"K  c #AC3D2E",
"L  c #9A4630",
"P  c #855B36",
"I  c #895E37",
"U  c #94663A",
"Y  c #A36D3D",
"T  c #A9713F",
"R  c #D14732",
"E  c #D14E35",
"W  c #C65638",
"Q  c #D25337",
"!  c #D45539",
"~  c #D45B3A",
"^  c #DC5F3F",
"/  c #D4653D",
"(  c #D8613B",
")  c #D36B3E",
"_  c #D4743E",
"`  c #816E46",
"'  c #8F6D42",
"]  c #847146",
"[  c #877449",
"{  c #8B7649",
"}  c #8D7749",
"|  c #947D4D",
" . c #9D7A49",
".. c #A97844",
"X. c #B87943",
"o. c #D45940",
"O. c #D76B42",
"+. c #C27C44",
"@. c #D57342",
"#. c #D57B44",
"$. c #DB7749",
"%. c #DC7B66",
"&. c #7F817E",
"*. c #97804F",
"=. c #9A814F",
"-. c #9E8451",
";. c #A5834E",
":. c #B9874D",
">. c #A18752",
",. c #A48953",
"<. c #AA8E55",
"1. c #AE9157",
"2. c #B39559",
"3. c #B7985B",
"4. c #BB9B5C",
"5. c #B69A63",
"6. c #CA8447",
"7. c #C88549",
"8. c #D58347",
"9. c #D68947",
"0. c #D78648",
"q. c #D8874E",
"w. c #D78B4A",
"e. c #D98D4B",
"r. c #DA914E",
"t. c #C49C5B",
"y. c #D49552",
"u. c #DC9551",
"i. c #DE9A54",
"p. c #E08A4D",
"a. c #E08551",
"s. c #E28C55",
"d. c #E38F5C",
"f. c #E39D56",
"g. c #E49358",
"h. c #E49C5B",
"j. c #C3A15F",
"k. c #D9A35C",
"l. c #E3A45B",
"z. c #E5A95E",
"x. c #EAAA5E",
"c. c #DD9A66",
"v. c #E4956F",
"b. c #C6A360",
"n. c #CAA662",
"m. c #CEA963",
"M. c #D6A862",
"N. c #D5AE65",
"B. c #D7B067",
"V. c #DAB267",
"C. c #D6B168",
"Z. c #DCB469",
"A. c #E6A762",
"S. c #E6AD62",
"D. c #EBAD62",
"F. c #E3B366",
"G. c #EBB465",
"H. c #E0B76A",
"J. c #ECB568",
"K. c #E5BB6C",
"L. c #EDBC6C",
"P. c #F1B666",
"I. c #F1BD6C",
"U. c #EDC06F",
"Y. c #F0C26F",
"T. c #EEC270",
"R. c #F2C571",
"E. c #F5C973",
"W. c #F9CB74",
"Q. c #F3C97C",
"!. c #FFD077",
"~. c #FFD379",
"^. c #7E8181",
"/. c #858989",
"(. c #868A8A",
"). c #888D91",
"_. c #8D9193",
"`. c #979A9A",
"'. c #9EA1A1",
"]. c #A2A5A5",
"[. c #A5A8A8",
"{. c #ABADAD",
"}. c #AEB0B0",
"|. c #B4B6B6",
" X c #E7AD8E",
".X c #E7B38A",
"XX c #EBAFA1",
"oX c #F3CC82",
"OX c #F5D597",
"+X c #D0C1A3",
"@X c #EFCCA3",
"#X c #FAE3BA",
"$X c #C5C7C7",
"%X c #CBCCCC",
"&X c #D6D7D7",
"*X c #EDD2C8",
"=X c #FBEAC7",
"-X c #FAEBD9",
";X c #F7DFE1",
":X c #DFE0E0",
">X c #E4E5E5",
",X c #EBEBEB",
"<X c #F9EDE3",
"1X c #FEF8EE",
"2X c #EFF0F0",
"3X c #F4F4F4",
"4X c #FEFBF3",
"5X c #FDF7F8",
"6X c #FFFFFE",
/* pixels */
"# # # # # # # # # # # # $ # # # # # # $ # # # # # # # # # # # # # # $ # # # # # # # # # # # # # # # # # # # # # # # # # # # # # ",
"# # # # $ # # # # # # # # # # # # # # # # # # # # # $ # # # # # # # # # # # # # # # # # # # % # # # # # # # % # # # # # # # # # ",
"# # # # # # # # # # # # # # # # # # # # # # # # # # # # $ # # # # # # # # # # # % + # # # # # # # # # # # # # # # # # # # # # # ",
"# # # # # # # # # # # # # # # # # # # # # # # # # # # # # # # # # # # # # # # # # # # # # # # # # # # # # # # # # # # # # # # # ",
"# # # # # $ # # # # # # # # # # # # # # # # # # # # $ # # # # # # # # # # # # $ # # # # # # # # # # # # # # # # # # # # # # # # ",
"# # # # # # # # # # # # # # # # # # # # # # # # # # # # # # # # # # # # # # # # # # # # # # # # # # # # # # # # # # # # # # + % ",
"# # # # # # # # # # # # # # $ # # $ # # # # # # # # # # # # # # # $ # # # # # # # # # # # # # # # # # # # + # # # % # # # # # # ",
"# # # # # # # # # # # # # # # # # # # # # # # # # # # # # # # # # # # # # # # # # # # # # # # # # # # # # % # # # # # # # # # # ",
"# # # # # # # # $ # # # # # # # # # # # # # @ @ # # # # # # # # # # # # # # # # # # # # # # # # # # % # # # # # # # # # # # # # ",
"# # $ # # # # # # # # # # # $ # # # # # # - 0 1 # # # # # # # # # # # # # # # # # # # # # # % # # # # # # # # # # # # # # # # # ",
"# # # # # # # # # # # # # # # # # # # # o N [.J # o # # # # # # # # # # # # # + + # # # # # # # # # # # # # # # # # # # # # # # ",
"# # # # # # # # # # # # # # # # # # @ - N _.2X$XF 0 # # # # # # # # # # # # 4 f 7 # # # # # # # # # # # # # # + # # # # # # # # ",
"# # # # # # # $ # # # # # # # # # # o 1 '.2X6X5X&XV @ @ # # # # # # # # # + j j.m # # # # # # # # # # # # # # % # # # # # # # # ",
"# # # # # # # # # # # # # # # # # # @ , F |.3X&X/.M # # # # # # # # # # # # r C s # # # # @ o O O # # # # # # # # # # # # # # % ",
"$ # # # # # # # # # # # # # # # # # # # o B $X_.- @ # # # # # # # # # # # # # # # # # # # & 4 4 : % # # # # # # # # # # # # # # ",
"# # # # # # # # # # # # # # O + @ # # # o < B q # @ # # # O O O @ @ o # # # # + # # # + # j 2.4.A - O # # # # # # # # # # # # # ",
"# # # # # # # # # # # + # 5 f g r $ O # # # o o # + O + > f f f f f f > @ + + # + # + & s <.W.W.m.c 4 # # # # # # # # % + # # # ",
"# # # # # # # $ # # # # % C N.H.>.> O # # # # $ # $ # # c m.V.V.V.C.n.c # # # $ # # # f b.U.R.R.U.C.C % + # # # # # # # # # # # ",
"# # # # # # # # # # # 5 C j.W.W.C.} s # O X O r A ` A A 1.R.W.W.W.W.R.2.` A ] A 8 % h <.T.I.z.z.J.Y.{ % O # % # # # # # # # # # ",
"# # # # # # # # # # O h C.R.Y.R.R.L.] - - > > ` K.R.U.U.Y.R.R.R.R.R.R.T.U.L.R.K.C p 4.R.U.l.w.w.l.L.] % @ # + # # # # # # # # # ",
"# # # # # # # # # # O h F.P.k.J.W.R.` ; m 1.1.m.R.W.R.E.R.R.R.R.R.R.R.R.W.E.W.R.m.4.K.L.f.r.w.9.f.L.[ % O + # # # # # # # # # # ",
"# # # # # # # # # # O h V.x.r.z.I.Y.=.x 4.W.W.R.R.R.R.R.R.R.R.Y.R.R.R.R.R.R.R.R.E.E.R.G.i.e.w.w.l.L.[ % @ # # # # # # # # # # % ",
"# # # # $ # # # # # + h V.x.e.r.l.L.H.N.K.R.R.R.Y.R.R.R.R.R.R.R.R.R.R.R.R.R.R.T.R.R.R.Y.L.l.e.0.f.J.[ # + # # # # # # # # # # # ",
"# # # # # # # # # # @ h V.G.e.w.i.L.W.W.W.R.R.R.W.W.E.R.Y.R.R.R.R.R.Y.W.K.,.] | n.W.W.W.W.P.l.e.7.} s % + # # # # # # # # # # # ",
"# # # $ # # # # $ # O h V.z.7.w.f.L.R.R.R.R.Y.U.Z.Z.K.T.R.R.R.R.R.R.R.T.4.p @ ; { Z.K.H.Z.K.L.l...r % # # # # # # # # # # # # # ",
"# # # # # # # # # # O x Z.;.k :.L.Y.W.W.W.W.W.3.c h ] Z.W.R.R.R.R.R.R.,.f - X # 9 x x j c 3.W.I.k.,.f # + # # + O O + # # # # # ",
"# # # # # # # # # # # s <.Z h 4.W.E.C.t.4.j.4.n # X 7 >.C.R.E.R.R.K.4.f @ o @ + o o o X # v j.K.W.R.>.i % + + > i p 8 % # # # # ",
"# # # # # # # # # # # % 7 ] m.U.E.T.-.9 8 8 9 > # + % 5 { K.W.R.W.<.i % # # @ # + # # O # % f 4.W.R.K.4.s o # c j.C.>.5 @ # # # ",
"# # # # # # # # # # # > x 3.W.W.Z.-.p X   . . . o # # o r | Z.K.1.j # . - F J H J J J V $ . % v 2.K.W.T.=.v m 1.E.~.m.9 o # # # ",
"# # # # # # # # # # O g N.R.R.T.1.7 - < < , < < - % # # # > >.4.i # # # N $X5X3X3X3X3X}.q # # # h B.W.R.U.K.K.U.R.U.2.7 O # # # ",
"# # # # # + + # # # X f Z.~.K.| i # B ].{.[.[.{.`.N o O + # s f ; o - F |.3X6X6X6X6X6X,X}.V # X s N.W.R.E.E.E.!.U.-.f - # # # # ",
"# # # # % 8 5 # O $ 5 Z Z.K.2.r # M ].6X6X6X6X6X3X(.q % + # # + # o , '.6X6X6X6X6X6X6X6X6X(.$ X f N.W.R.Y.Y.L.Z.3.s O + # # # # ",
"# # # O 7 -.{ & X 4 *.Z.U.=.8 # N |.2X6X6X6X6X6X6X,X].q o + # + # o - '.6X6X6X6X6X6X6X6X6X(.% X f N.W.Y.R.L.f.U 9 - + # # # # # ",
"# # # O 9 b.N.m * 5 4.~.Y.m @ . D ,X6X6X6X6X6X6X6X6X%XM o % # # # o - '.6X6X6X6X6X6X6X6X5X(.# X f C.W.R.R.L.l...c c f : + # # # ",
"# # # O 9 j.W.Z.n 9 4.W.U.] # o V >X6X6X6X6X6X6X6X6X%XM o # # # # o , '.6X6X6X6X6X6X6X6X5X(.# X f N.E.R.R.R.Y.L.K.U.2.7 O # # # ",
"# # # o 9 j.~.E.j.>.C.W.U.A # o V >X6X6X6X6X6X6X6X6X$XM o # # # # @ : ].6X6X6X6X6X6X6X6X6X(.% X f C.W.R.R.R.R.E.E.~.m.9 o # # # ",
"# # # O 5 -.Z.J.Y.Y.R.E.U.A # o V >X6X6X6X6X6X6X6X6X%XM o # # # # X - /.:X6X6X6X6X6X6X5X&XH # X f N.W.U.R.Y.L.I.E.Z.-.5 + # # # ",
"# # # # % 7 m r.J.E.R.E.U.] # o V >X6X6X6X6X6X6X6X6X%XM o # + @ O O # 0 F &X6X6X6X6X6X%XD 1 # o f N.W.R.E.J.f.x.K.[ 7 % + # # # ",
"# # # + % s ' y.J.R.R.E.U.C # X N `.&X6X6X6X6X6X6X&X(.0 o # i v v v x * < (.|.{.{.}.|.J - . # i { K.E.E.E.L.l.t.| 9 O # # # # # ",
"# # # O 7 1.K.L.Y.R.Y.W.U.] % # # 1 _.3X6X3X3X6X>XH - % # * } V.V.Z.m.c - < 1 1 1 1 1 < # o 5 <.K.Y.Y.U.U.Y.U.*.4 % # # # # # # ",
"# # # + : c ;.k.J.E.Y.R.U.j.A 4 . o N J /.J /.^.H q . X i ] ] m A C C } m *   . . . . . @ s *.Z.W.E.G.l.l.D.W.m.[ 9 # # # # # # ",
"# # # # # + a 7.x.L.Y.E.R.E.V.v : $ # # @ # + # # # % 4 { V.] 4 $ % 9 1.N.x > 7 7 5 7 4 8 | T.E.U.L.l.e.0.y.m.C.j.f + + # # # # ",
"% # # # + X h k.x.l.J.R.R.E.U.N.] ; X X o X o o o X 7 =.C.U.V.*.5 p 2.K.L.n.3.4.3.3.3.3.4.C.R.E.L.k.r.e.p.X.z s p > + + + # # # ",
"+ # # + % s *.U.P.l.L.R.R.R.R.W.m.n f h h h h g h g A Z.!.Y.m.{ > r ,.Z.E.W.E.W.W.W.W.W.W.E.R.J.l.e.e.e.T b & X + o : s 9 # + # ",
"# # # @ 7 <.H.U.J.L.U.R.R.T.R.R.U.Z.V.V.Z.V.V.Z.V.V.H.U.E.Z.A < % - 8 -.T.E.R.R.T.R.R.R.R.R.L.f.e.e.e.6.a % # # # # s 4.| & + # ",
"# # # + > n [ A Z | y.L.R.R.E.R.R.E.W.W.W.W.W.W.W.E.W.E.j.A G )._._.(.S { B.R.R.R.R.R.L.z.z.l.r.0.e.Y a & X O O % x <.K.N.{ 9 # ",
"# # # # + % % * $ * U u.J.U.L.T.R.R.R.R.R.R.Y.R.R.R.E.R.=.d [.6X4X4X3X&.d j.W.R.R.R.L.S.r.w.w.w.r.w.I 7 > 4 > % ; } Z.T.U.b.h + ",
"# # # # + O 6 I t # 2 b y.l.l.J.E.R.R.R.R.R.Y.R.R.Y.R.R.m.5.*X4X#X=X4X+X4.H.R.R.R.U.z.u.w.w.w.w.9.w.7.1.2.2.2.c % 7 ` Z.4.h > # ",
"# # # + $ 6 P 6.U e # 6 I +.e.x.J.G.L.R.R.R.R.E.T.E.T.E.R.W.#X=XQ.OX=XOXJ.G.G.G.G.S.u.w.w.w.w.e.r.i.G.E.W.W.W.2.f # 5 | C # O # ",
"# # % + 2 U 6.9.w.Y 6 # > I w.r.e.e.S.T.R.R.T.T.T.R.T.T.R.R.Q.Q.T.Q.oXS.r.e.y.u.y.r.w.w.w.w.w.0.u.J.U.E.R.R.R.T.b.g $ > : # # # ",
"# + # e I 7.e.w.f.k. .f # 3 b b U 9.f.z.z.z.z.z.z.z.A.z.z.z.z.l.A.z.l.r.0.0.w.w.w.w.w.e.e.#.O.( @.a.a.p.a.d.I.W.R.1.x # X # # # ",
"# + % P w.e.e.r.S.Y.E.1.6 $ # # t T 6.7.w.w.e.e.w.e.e.w.w.w.w.w.w.w.r.w.w.e.w.w.w.w.0.0.8.O.~ ~ ~ ~ ~ ~ ! $.D.T.R.R.t.d % # # # ",
"% O % I e.e.u.G.L.E.W.M...t O X ; t t k T p.p.e.e.0.w.w.w.e.w.w.w.w.w.e.w.w.w.w.w.0.) ! ~ $.h.h.h.h.h.h.h.s.$.d.R.W.K.4.v % + # ",
"# O % P r.r.z.Y.E.Y.I.z.w.U i - O O O % b T T Y Y +.#.#.#.#.#.#.#.#.#.#.#.0.e.w.8.@.O.O.O.h.E.Q.E.E.E.Q.Q.D.$.s.Y.R.R.W.*.% O # ",
"# + % P r.G.Y.Y.Y.U.l.r.w.k.4.p O # # # * 2 2 > e L E Q ! Q ! Q Q Q ! Q ~ 8.e.0.) ( h.J.J.L.R.E.R.E.T.T.R.L.J.J.R.R.R.E.| % O # ",
"# + % P u.I.E.Y.J.l.w.r.l.I.U.-.h % # # + O X : u K R R R R R E / / / / O.8.8.@.@.a.h.J.R.R.L.F.D.I.E.T.R.E.W.E.R.R.R.W.-.; O # ",
"# @ % P r.L.E.Y.z.w.e.k.L.Y.R.Y.<.> + # # # ; u W E Q Q Q Q Q ~ #.w.w.w.w.w.@.! s.I.h.l.I.E.T.i.f.L.R.R.I.I.R.R.R.R.R.K.{ % O # ",
"# o & I f.L.E.U.l.r.l.L.Y.E.Y.P...2 O # X 7 { 7.O.@._ @.@.@.@.#.w.w.e.w.w.e.) Q  X*X.XP.R.OX=XoXG.T.W.I.s.a.I.Q.R.W.C.A 9 $ # # ",
"# @ % l :.S.Y.J.i.r.J.R.Y.Y.G.f.Y > + # 5 C Z.P.u.i.u.r.w.w.w.w.w.w.w.w.w.w.8.%.*X1XOXR.OX-X1XOXT.R.L.h.O.O.h.D.A.M.| > o # # # ",
"# # # & f j.L.i.w.r.J.E.Y.D.r.e.U > X : | C.T.R.L.L.S.r.w.w.w.e.w.w.w.w.0.9..X*X5X1XOXOX-X6X1XOXY.R.d.O.@.#.( ^ ~ l 4 = # # # # ",
"# # # o 7 b.I.e.u.z.L.E.R.z.6.Y k & X : 1.W.E.R.E.E.U.z.u.w.w.w.w.w.w.w.w.9..X6X<X@Xv. X4X;XXXv.g.g.$./ 8.8.) ( W w X + # # # # ",
"# # # o 8 3.S.r.z.U.Y.Y.Y.x.+.y # # # 7 2.E.R.R.Y.Y.R.U.S.r.w.w.w.w.w.w.w.9..X<X@Xq.~ v.;XXXo.Q ! ! ) 9.e.0.0.e.7.a # # # # # # ",
"# # # # % f U 9.D.Y.R.L.l.f.X.t O # f ,.V.E.R.T.R.R.R.R.L.S.i.w.w.w.w.w.9.9.c..XM.8.@.a..Xy._ ) _ @.#.w.w.w.e.l.k.g + # # # # # ",
"# # # # + @ p 6.D.R.R.D.r.p.X.t o # ] R.E.T.R.Y.R.R.R.R.R.U.l.w.w.w.w.w.w.9.9.9.w.w.w.w.0.q.w.w.w.w.w.w.w.e.0.x.Z.x + # # # # # "
};
