/* XPM */
static char *result[] = {
/* columns rows colors chars-per-pixel */
"64 64 211 2 ",
"   c #050E0D",
".  c #000707",
"X  c #06110F",
"o  c #0A1312",
"O  c #0B1514",
"+  c #101817",
"@  c #121919",
"#  c #181E1F",
"$  c #1A1F20",
"%  c #1D2223",
"&  c #212426",
"*  c #242629",
"=  c #222828",
"-  c #2A2B2F",
";  c #2E2D31",
":  c #312F34",
">  c #2D3233",
",  c #333136",
"<  c #373339",
"1  c #3A363C",
"2  c #35393B",
"3  c #3D383F",
"4  c #3E3B41",
"5  c #433C44",
"6  c #483F49",
"7  c #3E4244",
"8  c #414547",
"9  c #424649",
"0  c #4C424B",
"q  c #484B4D",
"w  c #50454F",
"e  c #524651",
"r  c #554953",
"t  c #594B56",
"y  c #5D4E5A",
"u  c #4F5153",
"i  c #5F505C",
"p  c #56595C",
"a  c #61515D",
"s  c #5C5E60",
"d  c #655462",
"f  c #695664",
"g  c #6D5A67",
"h  c #6D5A69",
"j  c #665B66",
"k  c #725D6C",
"l  c #705B67",
"z  c #755F71",
"x  c #6A6B6E",
"c  c #656469",
"v  c #75606F",
"b  c #6C6E71",
"n  c #766170",
"m  c #7C6575",
"M  c #7E6679",
"N  c #767679",
"B  c #80677A",
"V  c #846A7C",
"C  c #866D7A",
"Z  c #896E81",
"A  c #8D7183",
"S  c #8F7589",
"D  c #917487",
"F  c #95768A",
"G  c #967A8B",
"H  c #9A798F",
"J  c #98778E",
"K  c #9B7A91",
"L  c #977B90",
"P  c #A17F95",
"I  c #888688",
"U  c #8C8C90",
"Y  c #948C94",
"T  c #9B999E",
"R  c #98949A",
"E  c #9F8186",
"W  c #A48196",
"Q  c #A68299",
"!  c #AB859D",
"~  c #AA8891",
"^  c #B39A98",
"/  c #9D9CA2",
"(  c #AD86A1",
")  c #AE88A1",
"_  c #B38BA4",
"`  c #B68DA8",
"'  c #B98FA9",
"]  c #BD93AD",
"[  c #B793A8",
"{  c #BF93B2",
"}  c #A09EA4",
"|  c #A8A4A9",
" . c #B6B3B8",
".. c #B4A7AE",
"X. c #CEA99E",
"o. c #C095AE",
"O. c #C69DA8",
"+. c #C296B2",
"@. c #C599B4",
"#. c #CB9DB6",
"$. c #CD9DBA",
"%. c #D5ADA9",
"&. c #C2B7AF",
"*. c #DFB6AF",
"=. c #DEB9A5",
"-. c #CFA1BB",
";. c #C2A8B9",
":. c #DAAEB6",
">. c #D4A4BD",
",. c #D7A8BA",
"<. c #D9ACBA",
"1. c #D7A8B7",
"2. c #DDB3B2",
"3. c #DDB1BB",
"4. c #C9A9B6",
"5. c #E0B7AE",
"6. c #E3BCAB",
"7. c #E4BDA7",
"8. c #E2B6B5",
"9. c #E4BAB4",
"0. c #E3B5BB",
"q. c #E4BABA",
"w. c #E9BFB3",
"e. c #EDCD9D",
"r. c #E9C69D",
"t. c #EED09D",
"y. c #F0D49F",
"u. c #D4C5B5",
"i. c #E6C2A5",
"p. c #E9C6A3",
"a. c #EBC9A1",
"s. c #EAC3AC",
"d. c #ECCBAA",
"f. c #E7C5AC",
"g. c #EED2A3",
"h. c #EED4AC",
"j. c #F0D4A5",
"k. c #F1D6AB",
"l. c #F1D8AE",
"z. c #E7C6B4",
"x. c #E9C7B7",
"c. c #EED5B2",
"v. c #ECD5BA",
"b. c #F1D9B4",
"n. c #F3DCBD",
"m. c #F4DBBC",
"M. c #D19FC3",
"N. c #D3A2C1",
"B. c #D9A6C5",
"V. c #D6A8C5",
"C. c #DBAAC5",
"Z. c #DBA7C9",
"A. c #D7ABCB",
"S. c #DDA9C9",
"D. c #D4A6C8",
"F. c #C6BCC5",
"G. c #DBB3C3",
"H. c #DBB3CC",
"J. c #DDB9CD",
"K. c #DEBDD5",
"L. c #DBB5D1",
"P. c #E1ADC8",
"I. c #E2B3C2",
"U. c #E3BEC5",
"Y. c #CAC5CA",
"T. c #CBC6CB",
"R. c #D6CBC5",
"E. c #D5C7D4",
"W. c #DAD5DB",
"Q. c #CDC9D0",
"!. c #E7C8C8",
"~. c #EBD6C7",
"^. c #F1DDC3",
"/. c #F0DECB",
"(. c #F2D4C7",
"). c #E1C4D5",
"_. c #E5CBDC",
"`. c #E6C6D5",
"'. c #EAD7D9",
"]. c #F3DBD7",
"[. c #F4E2CD",
"{. c #F7E2C7",
"}. c #F3E2D4",
"|. c #F9E7D4",
" X c #F2E3DC",
".X c #F9EADD",
"XX c #FBE9D8",
"oX c #EFE3DD",
"OX c #DFDAE1",
"+X c #E7CEE1",
"@X c #E9D5E4",
"#X c #EBDEE4",
"$X c #EDDDEA",
"%X c #E7D8E2",
"&X c #F2D8E1",
"*X c #EAE1E5",
"=X c #ECE3EB",
"-X c #E7E1E8",
";X c #F2E5E3",
":X c #F6E9E4",
">X c #FAEDE5",
",X c #F1E5ED",
"<X c #F3EAEC",
"1X c #FAEDEA",
"2X c #FDF2EE",
"3X c #EFE6F0",
"4X c #F5ECF3",
"5X c #F5EBF3",
"6X c #FBF2F5",
"7X c #FAF2FA",
"8X c None",
/* pixels */
"8X8X8X8X8Xo o o X X   X     X   X X                   o X X X X 8X8X8X8X8X8X8X8X8X8X8X8X8X8X8X8X8X8X8X8X8X8X8X8X8X8X8X8X8X8X8X8X",
"8X8X8X8X8X@ + @ @ @ @ + + + + @ + + + + + @ + + @ @ + @ @ @ + + 8X8X8X8X8X8X8X8X8X8X8X8X8X8X8X8X8X8X8X8X8X8X8X8X8X8X8X8X8X8X8X8X",
"8X8X8X8X% & = % & & = = = = * * = = = = = = = = = * * = = = % % 8X8X8X8X8X8X8X8X8X8X8X8X8X8X8X8X8X8X8X8X8X8X8X8X8X8X8X8X8X8X8X8X",
"8X8X8X8X, < 1 4 3 7 8 8 8 9 8 8 8 8 8 8 8 8 8 8 8 8 8 8 q 7 7 7 2 8X8X8X8X8X8X8X8X8X8X8X8X8X8X8X8X8X8X8X8X8X8X8X8X8X8X8X8X8X8X8X",
"8X8X8X< 6 e i i j j c x b x b x x x x x x b x b b b b b b b c p 9 8X8X8X8X8X8X8X8X8X8X8X8X8X8X8X8X8X8X8X8X8X8X8X8X8X8X8X8X8X8X8X",
"o @ & 1 t l M A L Y R / / / T T T R T T T T T / T / T | / R U N p > + . .       8X8X8X8X8X8X8X8X8X8X8X8X8X8X8X8X8X8X8X8X8X8X8X8X",
"o @ * 5 a C P [ ..;.F.Y.T.T.T.T.Y.Y.Y.Y.Y.Y.Y.T.T.Y.T.Q.T.Y.| U c 2 % o o O @ @ @ 8X8X8X8X8X8X8X8X8X8X8X8X8X8X8X8X8X8X8X8X8X8X8X",
"o @ * 5 f F ] N.L.W.'.'.-X*X*X-X-X-X-X-X-X#X*X-X#X#X-X*X=X'.Y.T b 9 > & % = * * = 8X8X8X8X8X8X8X8X8X8X8X8X8X8X8X8X8X8X8X8X8X8X8X",
"o @ * 5 h H @.S.K.&X].:X1X1X5X6X7X4X7X4X4X4X<X:X>X.X.X2X:XoXR...I c q 8 7 9 q 7 7 2 8X8X8X8X8X8X8X8X8X8X8X8X8X8X8X8X8X8X8X8X8X8X",
"o @ * 5 l K @.G.K.(.].|..X>X2X6X7X7X7X7X7X4X:X.XXX|.|.XXXX}.v. .T I N b b b b x s q > 8X8X8X8X8X8X8X8X8X8X8X8X8X8X8X8X8X8X8X8X8X",
"o @ * 5 h K @.C.U.(.(.(.[.XX1X5X7X7X7X7X4X1X.X}.{.n.n.n.n.n.v.u. .| } } } } T U N s 2 @   .   O o 8X8X8X8X8X8X8X8X8X8X8X8X8X8X8X",
"o @ * 5 h K +.,.0.x.s.k.n.[. X:X4X4X4X5X5X:X}.^.b.k.k.j.j.l.c.z.x.R.R.Q.Q.Q.T. .R x 7 % + O O @ @ @ 8X8X8X8X8X8X8X8X8X8X8X8X8X8X",
"o @ * 5 h J ] 1.8.w.p.g.l.n.].*X=X3X5X5X<X;X}.n.c.h.t.t.t.t.h.v./.'.oX-X<X<X-XQ.| N u > % % % = * * 8X8X8X8X8X8X8X8X8X8X8X8X8X8X",
"o @ * 5 h J +.>.8.s.a.a.h.v.~.'.$X$X3X3X3X;X}./.b.h.g.t.t.t.g.b.^.}..X2X6X7X<XOX .U b u 9 7 4 4 4 1 : 8X8X8X8X8X8X8X8X8X8X8X8X8X",
"o @ * 5 h K o.1.8.6.p.e.d.z.!.`.+X@X=X3X<X<XoX}./.n.c.h.g.t.y.j.n.{.|.>X2X2X6X-XQ.| U N b c g d i e 5 ; 8X8X8X8X8X8X8X8X8X8X8X8X",
"o @ * 5 h K o.<.q.s.a.e.a.z.z.!.E.+X@X=X<X<X<XoXoX/.^.c.g.t.t.y.l.l.{.{..X2X2X-XOXT. .| T Y G F Z h e : # X 8X8X8X8X8X8X8X8X8X8X",
"o @ * 5 h K ] ,.0.w.r.a.p.w.8.G.H.K.+X$X3X5X5X<X<XoX/.v.h.g.t.t.g.g.h.m.[. X:X=X-X%XW.E.Y.;.;.[ P V i 1 & + 8X8X8X8X8X8X8X8X8X8X",
"o @ * 5 h L +.,.q.s.a.e.p.7.:.1.C.J.E.@X$X,X,X,X;XoX}.n.h.g.e.e.e.a.g.v.~.].=X,X3X=X=X$X%X`.J.V.' F l 0 : & $ 8X8X8X8X8X8X8X8X8X",
"o @ * 5 h K ] <.q.s.p.e.p.6.:.>.V.H.K._.%X#X*X;XoX}./.n.l.g.e.r.r.r.i.z.!.~.@X$X3X4X5X5X,X&X`.I.%.~ C a 6 5 : - 8X8X8X8X8X8X8X8X",
"o @ * 5 h K o.,.q.s.a.a.r.7.:.1.N.A.L.K.`.`.'.]././.n.b.g.g.e.r.i.7.6.9.U.).`.+X$X3X5X7X1X].(.x.%.^ E C l a 6 5 ; 8X8X8X8X8X8X8X",
"o @ * 5 f J { ,.q.s.a.e.p.=.2.>.N.D.A.H.J.E.!.v.v.v.l.j.g.t.r.i.7.*.:.2.3.H.J.E.+X$X3X5X:X X(.z.7.X.^ ~ D B d 6 ; $ 8X8X8X8X8X8X",
"o @ * 5 h J +.,.8.s.a.a.p.6.2.,.N.N.D.B.C.G.q.z.h.g.g.y.t.e.a.i.*.:.,.,.V.N.C.J.).@X$X,XoX[.m.d.7.=.%.O._ J m 6 : $ O 8X8X8X8X8X",
"o @ * 5 h K ] >.0.w.s.p.i.6.2.<.,.N.N.N.N.,.2.6.p.a.e.t.t.e.a.i.5.:.,.N.>.>.N.S.K._.@X$X}./.b.d.r.7.w.1.@.P B r : # O 8X8X8X8X8X",
"o @ * 5 h K @.,.0.q.i.i.7.6.2.2.<.,.>.>.>.1.:.5.7.r.r.e.e.t.r.i.6.2.:.>.>.>.N.D.H.K.+X'.'.~.h.g.e.p.w.0.1.! B r ; @ o 8X8X8X8X8X",
"o @ * 5 h K @.C.I.0.8.5.6.6.5.*.2.:.,.>.-.>.1.:.5.7.7.r.e.e.e.a.i.5.2.2.,.>.>.N.A.L.E.`.!.!.h.t.t.s.w.I.-.( M e - @ X 8X8X8X8X8X",
"o @ * 5 h K @.C.P.0.<.2.2.5.6.i.6.*.2.>.-.>.>.1.:.:.6.p.a.e.e.e.a.i.7.5.:.1.>.N.D.A.H.J.!.z.d.g.a.d.w.0.$.( M e ; @ X 8X8X8X8X8X",
"o @ * 5 h H ] >.B.C.,.,.2.*.i.p.i.7.*.1.,.N.N.>.,.<.2.7.p.e.e.t.t.e.p.i.2.<.,.N.N.B.V.C.3.9.i.a.a.s.w.3.$.( M r : $ O 8X8X8X8X8X",
"o @ * 5 f A ) +.$.$.M.,.:.8.i.p.a.p.5.2.,.>.N.N.N.,.:.5.i.r.e.e.t.e.r.p.6.2.,.,.N.N.>.>.:.2.i.p.p.s.9.<.#._ Z d 5 ; & $ 8X8X8X8X",
"o @ * 4 i m F Q _ { @.M.<.9.p.e.e.a.i.*.2.,.>.,.N.>.1.:.5.i.p.a.e.t.t.r.i.5.2.:.1.>.>.>.1.2.5.7.6.9.8.<.$.' J n y 0 4 , 8X8X8X8X",
"8X@ & 1 0 a k V J ( +.$.<.9.s.e.e.e.p.i.5.2.:.>.>.N.,.<.2.9.i.i.r.e.t.e.p.i.6.2.:.1.>.>.>.1.8.8.5.8.3.<.$.+.! F B l y 0 1 * 8X8X",
"8X8X8X8X< 5 0 a z J ` $.<.w.i.e.e.t.e.r.i.6.2.<.,.N.N.>.,.:.*.6.r.e.t.t.e.a.i.6.8.1.>.>.>.1.<.:.<.<.<.N.$.#.] _ Q D m y 3 * @ o ",
"8X8X8X8X% & ; 5 d Z _ $.3.9.s.a.t.e.e.e.a.i.5.2.,.N.N.>.>.,.:.*.i.r.e.e.e.e.a.p.7.2.1.>.>.>.>.>.,.<.N.>.>.M.$.#.o.) A d 5 * @ o ",
"8X8X8X8X8X+ $ : r B ! #.<.8.w.p.e.t.t.e.e.p.6.2.,.>.M.M.N.N.,.2.6.i.r.t.t.t.e.r.i.2.<.>.N.N.-.N.N.N.N.N.N.N.B.B.-.] H h 5 * @ o ",
"8X8X8X8X8Xo @ ; e B ) #.I.q.9.6.p.r.e.t.e.a.6.2.,.N.M.M.M.N.,.:.*.6.i.a.e.e.t.e.i.*.<.>.N.M.M.N.N.N.-.N.N.N.C.S.B.@.K h 5 * @ o ",
"8X8X8X8X8XX @ ; e B ) >.P.0.0.8.=.i.a.t.e.r.6.2.,.M.M.M.M.M.>.,.3.2.5.i.p.e.e.e.i.*.<.>.M.M.N.M.-.M.M.N.N.B.S.S.B.@.K l 5 * @ o ",
"8X8X8X8X8Xo @ ; e B ) $.Z.P.I.<.2.5.p.r.t.a.i.2.,.N.M.M.M.>.N.>.,.<.2.5.i.a.t.r.i.*.<.>.N.M.M.N.N.N.N.N.N.N.B.S.N.+.K l 8 * @ o ",
"8X8X8X8X8XO # : e B ! @.N.D.B.,.<.2.i.i.a.a.6.2.,.N.N.N.N.N.N.>.>.>.<.2.6.i.r.a.i.2.,.>.N.-.M.>.N.N.N.N.N.N.B.B.N.o.H g 5 * @ o ",
"8X8X8X8X8XO # : e n H ' +.$.$.-.,.2.6.i.p.i.6.2.:.,.,.N.>.N.>.M.N.N.>.:.*.i.p.i.6.2.<.>.N.M.N.M.N.N.N.N.N.N.B.B.>.+.H h 5 * @ o ",
"8X8X8X8X8X8X# ; 0 f V F Q _ { $.N.<.2.9.i.6.6.*.2.2.,.,.>.N.N.M.N.M.N.,.2.5.6.6.*.2.,.N.N.N.N.N.N.N.N.N.N.B.C.S.B.+.H l 5 * @ o ",
"8X8X8X8X8X8X8X- 4 r a k Z K _ @.,.,.3.2.*.5.6.6.6.5.2.:.,.>.N.N.M.N.N.,.<.2.*.2.2.:.>.N.N.N.>.M.N.>.N.-.N.N.S.S.B.@.P l 5 * @ o ",
"8X8X8X8X8X8X8X8X; < 5 0 f V Q +.N.C.C.<.:.2.5.i.i.i.5.2.<.,.N.M.N.M.>.>.,.<.<.:.<.>.>.N.N.N.N.N.N.N.>.M.N.N.S.S.N.@.K h 5 * @ o ",
"8X8X8X8X8X8X8X8X8X% & , 0 k H ] >.B.B.B.,.:.*.6.i.p.i.*.<.>.>.M.M.N.N.N.>.>.>.>.>.>.>.N.N.N.>.N.>.N.N.N.N.>.B.N.-.] J g 5 * @ o ",
"8X8X8X8X8X8X8X8X8Xo @ % 5 d F ] $.Z.Z.N.>.<.2.6.s.p.7.*.:.>.N.M.M.>.>.N.>.N.>.>.N.N.N.N.-.N.>.M.M.N.N.N.N.-.$.@.] ! Z f 5 * @ o ",
"8X8X8X8X8X8X8X8X8X  o % 1 a F ] N.S.Z.N.>.>.2.5.7.7.5.8.,.,.N.N.N.N.N.N.N.M.M.M.N.N.N.>.N.N.N.N.>.N.B.N.-.@.] ! K Z n y 3 * + o ",
"8X8X8X8X8X8X8X8X8X  o % 1 d F { B.S.Z.N.N.>.<.2.8.5.2.:.,.>.N.M.M.>.>.N.N.M.M.N.M.N.N.N.>.N.N.>.N.N.B.N.$.] ! D n g t 0 < & 8X8X",
"8X8X8X8X8X8X8X8X8X  O % 3 d F ] N.S.Z.B.N.>.>.,.<.<.1.1.>.N.>.N.>.N.M.>.>.N.N.M.N.-.N.N.M.N.N.N.N.N.B.B.$.' F v t 5 1 , 8X8X8X8X",
"8X8X8X8X8X8X8X8X8Xo + & 3 d D ` M.N.N.N.N.>.>.,.<.N.>.>.>.N.M.>.M.N.M.N.M.N.M.>.N.N.N.N.>.>.M.>.N.N.B.B.$.! C a 4 - % # 8X8X8X8X",
"8X8X8X8X8X8X8X8X8X8X@ & 1 a V Q ` +.#.$.N.N.B.N.N.N.N.N.N.N.>.N.>.N.>.N.>.N.>.N.N.N.-.N.N.N.N.N.N.B.B.B.$.! B r : # O 8X8X8X8X8X",
"8X8X8X8X8X8X8X8X8X8X@ % 1 r h V F Q [ @.N.S.Z.Z.N.N.B.N.N.N.N.N.N.>.N.N.>.N.>.N.>.M.N.N.N.N.B.N.B.Z.S.S.$.! B w - @ X 8X8X8X8X8X",
"8X8X8X8X8X8X8X8X8X8X8X8X, 5 r a v A Q ] >.S.P.Z.Z.B.D.B.N.N.N.N.N.M.>.>.N.N.N.N.N.>.N.>.N.N.B.B.S.P.P.S.>.) B w - @ o 8X8X8X8X8X",
"8X8X8X8X8X8X8X8X8X8X8X8X8X; , 5 e g D _ $.B.S.Z.B.B.M.B.N.M.N.N.N.>.N.M.N.N.N.N.N.N.N.N.N.N.B.B.B.Z.P.Z.$.! V e : @ o 8X8X8X8X8X",
"8X8X8X8X8X8X8X8X8X8X8X8X8X8X% * 1 t M Q o.$.N.-.$.$.$.-.-.>.N.N.>.M.N.>.M.>.N.N.M.>.N.N.N.>.$.$.$.-.N.M.@.Q B r , # o 8X8X8X8X8X",
"8X8X8X8X8X8X8X8X8X8X8X8X8X8Xo # - 0 h D ! _ _ _ _ ` ] +.$.>.M.N.N.N.N.N.N.N.N.N.N.N.B.>.$.@.] ` _ _ ' _ ! J n w : # O 8X8X8X8X8X",
"8X8X8X8X8X8X8X8X8X8X8X8X8X8X8Xo & 5 y v V A A A Z D P _ +.>.B.Z.B.B.B.B.N.B.B.B.B.B.B.N.@._ W F Z Z A Z C m a 6 : # 8X8X8X8X8X8X",
"8X8X8X8X8X8X8X8X8X8X8X8X8X8X8X8X8X< 0 t a a i i d h V P ' M.Z.P.S.S.B.B.B.C.B.B.S.S.Z.>.] W V k d i i a a y w 5 - 8X8X8X8X8X8X8X",
"8X8X8X8X8X8X8X8X8X8X8X8X8X8X8X8X8X8X, 1 3 3 1 < 5 6 f Z _ @.N.P.C.B.N.B.B.N.B.B.Z.Z.B.$._ F h w 5 < 1 1 3 1 < : 8X8X8X8X8X8X8X8X",
"8X8X8X8X8X8X8X8X8X8X8X8X8X8X8X8X8X8X& & * & % % * , r n P +.$.-.$.$.#.#.#.#.$.$.>.$.$.+.Q V t < * % % % * & & 8X8X8X8X8X8X8X8X8X",
"8X8X8X8X8X8X8X8X8X8X8X8X8X8X8X8X8X8X8X@ @ + O o + * 6 g Z P _ _ _ _ _ ) ( _ _ ( _ _ _ Q D h 0 - @ O O + @ @ 8X8X8X8X8X8X8X8X8X8X",
"8X8X8X8X8X8X8X8X8X8X8X8X8X8X8X8X8X8X8X8Xo X     o % 1 y k V Z Z Z Z Z Z Z Z Z Z Z Z Z V v y 5 & O X   X o 8X8X8X8X8X8X8X8X8X8X8X",
"8X8X8X8X8X8X8X8X8X8X8X8X8X8X8X8X8X8X8X8X8X8X8X8X8X8X, 6 r y i i a y y a y y y y a i a y r 0 , 8X8X8X8X8X8X8X8X8X8X8X8X8X8X8X8X8X",
"8X8X8X8X8X8X8X8X8X8X8X8X8X8X8X8X8X8X8X8X8X8X8X8X8X8X8X, < 1 1 1 1 1 1 1 1 1 1 1 1 3 1 1 1 , 8X8X8X8X8X8X8X8X8X8X8X8X8X8X8X8X8X8X",
"8X8X8X8X8X8X8X8X8X8X8X8X8X8X8X8X8X8X8X8X8X8X8X8X8X8X8X& & & & & & & & & & & & & % & & & & % 8X8X8X8X8X8X8X8X8X8X8X8X8X8X8X8X8X8X",
"8X8X8X8X8X8X8X8X8X8X8X8X8X8X8X8X8X8X8X8X8X8X8X8X8X8X8X@ + + + + + + + + + + + + + + + + @ + 8X8X8X8X8X8X8X8X8X8X8X8X8X8X8X8X8X8X",
"8X8X8X8X8X8X8X8X8X8X8X8X8X8X8X8X8X8X8X8X8X8X8X8X8X8X8X8Xo o o o o o o o o o o o o o o o o o 8X8X8X8X8X8X8X8X8X8X8X8X8X8X8X8X8X8X"
};
