/* XPM */
static char *result[] = {
/* columns rows colors chars-per-pixel */
"48 47 7 1 ",
"  c #141B1B",
". c #E46D3A",
"X c #965746",
"o c #CF736D",
"O c #EF9597",
"+ c #FFCBA9",
"@ c None",
/* pixels */
"@@@@@@@@@@@@@@@@@@@@   ++   @@@@@@@@@@@@@@@@@@@@",
"@@@@@@@@@@@@@@@@@@  ++++++++  @@@@@@@@@@@@@@@@@@",
"@@@@@@@@@@@@@@    ++++++++++++    @@@@@@@@@@@@@@",
"@@@@@@@@@@@@@ +++ ++++++++++++ +++ @@@@@@@@@@@@@",
"@@@@@@@@@@@@ ++++++++++++++++++++++ @@@@@@@@@@@@",
"@@@@@@@@   @ ++++++++++++++++++++++ @   @@@@@@@@",
"@@@@@@@ ++O O++++++++++++++++++++++O O++ @@@@@@@",
"@@@@@@ +++OOO++++++++++++++++++++++OOO+++ @@@@@@",
"@@@@@@ ++++OO++++++O++++++++O++++++OO++++ @@@@@@",
"@@@@@ ++++++OO++++O++++++++++O++++OO++++++ @@@@@",
"@@@@@ ++++++++O++OO++++++++++OO++O++++++++ @@@@@",
"@@@@@@ +++++++OOOOO++++++++++OOOOO+++++++ @@@@@@",
"@@@@@ +++++OOOOOOOO++++++++++OOOOOOOO+++++ @@@@@",
"@@@@ OO+++++OOOOOOOO++++++++OOOOOOOO+++++OO @@@@",
"@@@ OOO++++++OOOOOOOO++++++OOOOOOOO++++++OOO @@@",
"@@@ OOOO+++++OOOOOOO++++++++OOOOOOO+++++OOOO @@@",
"@@ ++OOOOO++++OOOOO++++++++++OOOOO++++OOOOO++ @@",
"@ ++++OOO+++++OO++OO++++++++OO++OO+++++OOO++++ @",
" +++++OOO++++O++++++O++++++O++++++O++++OOO+++++ ",
" +++++OOOO++++++++++++++++++++++++++++OOOO+++++ ",
" +++++OOoO++++++++++++++++++++++++++++OoOO+++++ ",
" O+++++OOoO++++++++++++++++++++++++++OoOO+++++O ",
"@ OOO++OOOOO++++++++++++++++++++++++OOOOO++OOO @",
"@@  ++++OO+OO++O++++O++++++O++++O++OO+OO++++  @@",
"@@ O++++++++OOOOO+++O++++++O+++OOOOO++++++++O @@",
"@@ OO++++++++OOOOO+OOO++++OOO+OOOOO++++++++OO @@",
"@@@ OO+++++++OOOOOOOOOOOOOOOOOOOOOO+++++++OO @@@",
"@@@ OOO+++++OOOOOOOOOOOOOOOOOOOOOOOO+++++OOO @@@",
"@@@@ OOOOOOOOoOOOOOOOOOOOOOOOOOOOOoOOOOOOOO @@@@",
"@@@@@ OOOOOOoOOOOOOoOOOOOOOOoOOOOOOoOOOOOO @@@@@",
"@@@@@@  OO oOOOOOOOOoOOOOOOoOOOOOOOOo OO  @@@@@@",
"@@@@@@@@  @ OOOOOOOOoooOOoooOOOOOOOO @  @@@@@@@@",
"@@@@@@@@@@@@ OOOOOOooooooooooOOOOOO @@@@@@@@@@@@",
"@@@@@@@@@@@@@ OOOooooooooooooooOOO @@@@@@@@@@@@@",
"@@@@@@@@@@@@@@  oo oooooooooo oo  @@@@@@@@@@@@@@",
"@@@@@@@@@@@@@@ XX @ XXooooXX @ XX @@@@@@@@@@@@@@",
"@@@@@@@@@@@@@@ XXX X.XXXXXX.X XXX @@@@@@@@@@@@@@",
"@@@@@@@@@@@@@@@ XXXX.X.X..X.XXXX @@@@@@@@@@@@@@@",
"@@@@@@@@@@@@@@@@   X.X......X   @@@@@@@@@@@@@@@@",
"@@@@@@@@@@@@@@@@@ .X........X. @@@@@@@@@@@@@@@@@",
"@@@@@@@@@@@@@@@@ ...X......X... @@@@@@@@@@@@@@@@",
"@@@@@@@@@@@@@@@@......X..X......@@@@@@@@@@@@@@@@",
"@@@@@@@@@@@@@@@@.....X....X.....@@@@@@@@@@@@@@@@",
"@@@@@@@@@@@@@@@@@..XX..XX..XX..@@@@@@@@@@@@@@@@@",
"@@@@@@@@@@@@@@@@@XX@X.X..X.X@XX@@@@@@@@@@@@@@@@@",
"@@@@@@@@@@@@@@@@@@@@X.X..X.X@@@@@@@@@@@@@@@@@@@@",
"@@@@@@@@@@@@@@@@@@@@@X....X@@@@@@@@@@@@@@@@@@@@@"
};
