/* XPM */
static char *result[] = {
/* columns rows colors chars-per-pixel */
"64 64 156 2 ",
"   c #000A0D",
".  c #061213",
"X  c #0D1617",
"o  c #0F1919",
"O  c #141B1B",
"+  c #191D1C",
"@  c #1E201F",
"#  c #28231F",
"$  c #26221D",
"%  c #1D2120",
"&  c #232322",
"*  c #262B27",
"=  c #2B2B29",
"-  c #372A25",
";  c #3E2B21",
":  c #342C2D",
">  c #382F2F",
",  c #33322E",
"<  c #3D3132",
"1  c #422D22",
"2  c #45312B",
"3  c #51372F",
"4  c #403434",
"5  c #423D37",
"6  c #4F3C3D",
"7  c #573A32",
"8  c #563D3C",
"9  c #613F3D",
"0  c #5D403F",
"q  c #7F452B",
"w  c #63403D",
"e  c #6D4439",
"r  c #74473B",
"t  c #7B4B3D",
"y  c #5C4344",
"u  c #534A41",
"i  c #594F45",
"p  c #5B5046",
"a  c #5E5248",
"s  c #604446",
"d  c #674A4B",
"f  c #6D4C4D",
"g  c #714F4F",
"h  c #7B4B48",
"j  c #65584C",
"k  c #67594D",
"l  c #6C5D50",
"z  c #735351",
"x  c #7F5557",
"c  c #8F4C2D",
"v  c #A05230",
"b  c #A65A3F",
"n  c #BC613F",
"m  c #C5653F",
"M  c #CC673E",
"N  c #D5693C",
"B  c #DB6B3B",
"V  c #D0673D",
"C  c #E46D3A",
"Z  c #E86E3A",
"A  c #834F41",
"S  c #8E534A",
"D  c #935646",
"F  c #9D5945",
"G  c #9D5A4B",
"H  c #985744",
"J  c #825859",
"K  c #8A5C5D",
"L  c #9A5A55",
"P  c #A25A43",
"I  c #AE5E42",
"U  c #A15C4A",
"Y  c #B15F42",
"T  c #A15D58",
"R  c #846F5F",
"E  c #B66041",
"W  c #BC6241",
"Q  c #AC625A",
"!  c #B7685F",
"~  c #BA695F",
"^  c #B5665C",
"/  c #9A6567",
"(  c #946263",
")  c #947D69",
"_  c #A76D6E",
"`  c #AD6A68",
"'  c #A37A6F",
"]  c #BB7879",
"[  c #C06340",
"{  c #C26C67",
"}  c #C86F68",
"|  c #CE736C",
" . c #D1746E",
".. c #CE7571",
"X. c #C27A7D",
"o. c #D27771",
"O. c #D57A76",
"+. c #D97871",
"@. c #D77C78",
"#. c #D97E7A",
"$. c #9D816D",
"%. c #A0846F",
"&. c #A38671",
"*. c #A68973",
"=. c #A98B75",
"-. c #BC857D",
";. c #BE8B7F",
":. c #B2927B",
">. c #DC817E",
",. c #E1807B",
"<. c #CA7F80",
"1. c #BC9980",
"2. c #CE8385",
"3. c #D38587",
"4. c #DE8381",
"5. c #DC8A8C",
"6. c #C39D84",
"7. c #E18684",
"8. c #E58A8A",
"9. c #E98F8F",
"0. c #EA8F90",
"q. c #E59091",
"w. c #EF9597",
"e. c #ED9997",
"r. c #EF9698",
"t. c #EF9A98",
"y. c #E29B92",
"u. c #F09597",
"i. c #F19698",
"p. c #F19B99",
"a. c #FB9A9D",
"s. c #CEA68C",
"d. c #D1A88D",
"f. c #D7AD91",
"g. c #DAAF92",
"h. c #DDB294",
"j. c #EFA296",
"k. c #E9AE9A",
"l. c #F4A39C",
"z. c #F5AB9E",
"x. c #E0B496",
"c. c #E7B99A",
"v. c #EABB9C",
"b. c #F7AFA0",
"n. c #FFAFA4",
"m. c #F7B0A0",
"M. c #F9B5A2",
"N. c #FABBA4",
"B. c #F3C2A2",
"V. c #FDC3A6",
"C. c #FBC8A7",
"Z. c #FEC6A8",
"A. c #FFCBA9",
"S. c #FFD1AE",
"D. c #FFD4B0",
"F. c None",
/* pixels */
"F.F.F.F.F.F.F.F.F.F.F.F.F.F.F.F.F.F.F.F.F.F.F.F.F.F.F.@ O X l A.A.l X O O F.F.F.F.F.F.F.F.F.F.F.F.F.F.F.F.F.F.F.F.F.F.F.F.F.F.F.",
"F.F.F.F.F.F.F.F.F.F.F.F.F.F.F.F.F.F.F.F.F.F.F.F..   u $.$.$.6.A.A.6.$.$.$.0   . F.F.F.F.F.F.F.F.F.F.F.F.F.F.F.F.F.F.F.F.F.F.F.F.",
"F.F.F.F.F.F.F.F.F.F.F.F.F.F.F.F.F.F.F.F.F.F.F.F.p i $.S.S.S.S.A.A.A.S.S.S.$.p a F.F.F.F.F.F.F.F.F.F.F.F.F.F.F.F.F.F.F.F.F.F.F.F.",
"F.F.F.F.F.F.F.F.F.F.F.F.F.F.F.F.F.F.F.= = = % , h.A.C.C.A.A.A.A.A.A.A.A.C.C.A.h., % = = = F.F.F.F.F.F.F.F.F.F.F.F.F.F.F.F.F.F.F.",
"F.F.F.F.F.F.F.F.F.F.F.F.F.F.F.F.F.F.a d.d.d.R , h.S.A.A.Z.A.A.A.A.A.A.A.A.S.S.h., R f.d.d.a F.F.F.F.F.F.F.F.F.F.F.F.F.F.F.F.F.F.",
"F.F.F.F.F.F.F.F.F.F.F.F.F.F.F.F.F.l 1.S.S.S.h.&.B.S.A.A.A.A.A.A.A.A.A.A.A.A.S.B.%.h.S.S.S.1.l F.F.F.F.F.F.F.F.F.F.F.F.F.F.F.F.F.",
"F.F.F.F.F.F.F.F.F.F.F.F.F.F.F.F.O *.S.A.S.A.A.A.A.A.A.A.A.A.A.A.A.A.A.A.A.A.A.A.S.A.A.A.A.D.*.O F.F.F.F.F.F.F.F.F.F.F.F.F.F.F.F.",
"F.F.F.F.F.F.F.F.F.F.F.& & & & F.& =.S.A.A.A.A.A.A.A.A.A.A.A.A.A.A.A.A.A.A.A.A.A.A.A.Z.A.A.S.=.$ F.& * & * F.F.F.F.F.F.F.F.F.F.F.",
"F.F.F.F.F.F.F.F.F.F.i 1.s.-.x = _ k.S.A.A.A.A.A.A.A.A.A.A.A.A.A.A.A.A.A.A.A.A.A.A.A.A.A.A.A.k._ = x -.6.1.i F.F.F.F.F.F.F.F.F.F.",
"F.F.F.F.F.F.F.F.F.j :.S.S.b.X.K 9.N.A.A.A.A.A.A.A.A.A.A.A.A.A.A.C.A.A.A.A.A.A.A.A.A.A.A.A.A.V.q.K <.M.S.S.:.j F.F.F.F.F.F.F.F.F.",
"F.F.F.F.F.F.F.F.O *.S.A.A.m.p.i.w.M.A.A.A.A.A.A.A.V.V.C.A.A.A.A.A.A.A.A.A.V.V.A.A.A.A.C.A.A.M.u.u.i.M.A.A.D.&.O F.F.F.F.F.F.F.F.",
"F.F.F.F.F.F.F.F.% =.S.A.A.Z.M.i.r.N.A.A.A.A.A.A.V.z.z.A.A.A.A.A.A.A.A.A.A.z.z.A.A.A.A.A.A.A.M.u.i.M.Z.A.A.S.=.% F.F.F.F.F.F.F.F.",
"F.F.F.F.F.F.F., =.v.A.A.A.A.Z.M.t.t.M.A.A.A.A.V.z.m.V.A.A.A.A.A.A.A.A.A.A.N.m.z.V.A.A.A.A.M.t.t.M.Z.Z.A.A.A.v.=., F.F.F.F.F.F.F.",
"F.F.F.F.F.F.F., v.D.A.A.Z.A.S.Z.m.z.z.N.A.A.A.m.t.M.A.A.A.A.A.A.A.A.A.A.A.A.M.t.m.A.A.A.M.z.z.m.Z.A.A.A.A.A.D.v., F.F.F.F.F.F.F.",
"F.F.F.F.F.F.F., 6.B.A.A.A.A.A.A.A.A.N.t.N.V.M.u.e.M.A.A.A.A.A.A.A.A.A.C.A.A.N.u.w.m.V.V.t.M.A.A.A.A.A.A.A.A.B.6., F.F.F.F.F.F.F.",
"F.F.F.F.F.F.F.F., :.S.A.Z.A.A.A.A.A.M.t.t.t.t.u.u.M.A.A.A.A.A.A.A.A.A.A.A.A.M.e.w.t.t.t.t.M.S.A.A.A.A.A.A.S.:., F.F.F.F.F.F.F.F.",
"F.F.F.F.F.F.F.* ) h.A.A.A.A.N.z.z.z.l.w.w.w.w.w.w.M.A.A.A.A.A.A.A.A.A.A.A.A.N.u.w.w.u.w.u.p.z.z.z.N.A.A.A.S.h.$.* F.F.F.F.F.F.F.",
"F.F.F.F.F.F.: z k.Z.A.A.A.A.V.l.w.w.w.w.w.w.w.w.r.z.V.A.A.A.A.A.A.A.A.A.A.N.z.w.u.w.w.w.r.u.w.u.l.N.A.A.A.A.Z.k.z : F.F.F.F.F.F.",
"F.F.F.F.F.% g w.r.N.A.A.A.A.A.V.p.r.r.r.r.w.w.w.r.w.z.V.A.A.A.A.A.A.A.A.A.l.r.r.w.w.w.r.r.r.w.j.Z.A.A.A.A.A.M.u.q.g & F.F.F.F.F.",
"F.F.F.F.O K 5.r.r.N.A.A.A.A.A.A.V.l.r.r.w.r.w.u.r.r.r.l.V.A.A.A.A.A.A.V.l.e.r.u.r.w.w.r.u.w.l.V.A.A.A.A.A.A.M.r.i.5.K O F.F.F.F.",
"F.F.F.F.X / a.r.w.l.M.A.S.A.A.A.A.z.w.r.r.w.w.w.u.w.p.M.C.A.A.A.A.A.A.A.M.p.r.u.w.w.w.w.r.w.z.A.A.A.A.S.A.N.l.w.r.a./ X F.F.F.F.",
"F.F.F.F.u -.l.r.r.w.l.N.N.V.A.A.A.M.i.r.w.u.u.w.u.j.M.A.A.A.A.A.A.A.A.A.A.M.t.e.u.w.w.u.r.t.m.A.A.A.Z.N.N.l.w.u.w.l.-.u F.F.F.F.",
"F.F.F.5 h.A.M.i.u.u.u.t.t.N.A.A.A.A.M.u.u.t.u.t.u.m.A.A.A.A.A.A.A.A.A.A.A.A.m.u.u.t.u.r.w.M.A.A.A.A.N.p.e.e.r.u.r.M.A.h.5 F.F.F.",
"F.F.i s.C.A.Z.N.t.w.u.t.M.A.A.A.A.A.M.u.u.m.N.N.t.t.m.A.A.A.A.A.A.A.A.A.A.m.p.t.N.V.z.w.r.N.A.A.A.A.Z.M.i.r.r.t.M.Z.A.C.s.i F.F.",
"F.j :.S.A.A.A.Z.p.r.w.p.V.A.A.A.A.N.z.m.z.V.A.A.M.m.z.M.C.A.A.A.A.A.A.A.m.z.m.M.A.A.V.m.z.m.N.A.A.A.A.V.p.w.r.p.Z.S.A.A.S.:.k F.",
"O =.D.A.A.Z.A.Z.t.r.w.p.N.A.A.A.A.z.m.A.A.A.A.A.A.A.N.l.V.A.A.A.A.A.A.V.l.N.S.A.A.A.A.A.A.z.z.A.A.A.A.N.i.r.r.p.V.A.A.A.A.S.&.@ ",
"O *.S.A.A.A.A.Z.p.w.w.w.e.N.A.A.A.A.A.A.A.A.A.A.A.A.A.C.A.A.A.A.A.A.A.V.V.C.A.A.A.A.A.A.A.A.A.A.A.A.N.t.r.r.u.p.V.A.A.A.A.S.*.O ",
"O *.S.A.A.A.A.V.p.w.8.#.w.N.A.A.A.A.A.A.A.A.A.A.A.A.A.A.A.A.A.A.A.A.A.A.A.A.A.A.A.A.A.A.A.A.A.A.A.A.N.q.>.8.u.p.V.A.A.A.A.D.*.O ",
"O ' Z.A.A.A.A.Z.b.p.8.<.7.a.V.A.A.A.A.A.A.A.A.A.A.A.A.A.A.A.A.A.A.A.A.A.A.A.A.A.A.A.A.A.A.A.A.A.A.N.j.7.<.0.a.m.Z.A.A.A.A.Z.' O ",
"O K y.V.V.Z.Z.A.A.b.w.0.@.8.l.V.A.A.A.A.A.A.A.A.A.A.A.A.A.A.A.A.A.A.A.A.A.A.A.A.A.A.A.A.A.A.A.A.V.z.8.@.0.w.l.Z.A.Z.Z.N.C.y.K O ",
"F.& z t.t.u.b.A.A.b.w.w.w.w.u.p.V.A.A.A.A.A.A.A.A.A.A.A.A.A.A.A.A.A.A.A.A.A.A.A.A.A.A.A.A.A.A.V.j.r.w.w.w.w.b.A.A.b.i.i.t.z & F.",
"F.F.< s y 1.N.A.A.N.b.w.u.z.z.u.l.N.A.A.z.V.A.A.A.A.N.z.V.A.A.A.A.A.A.A.z.N.A.A.A.A.N.z.A.A.V.l.u.z.z.w.w.b.N.A.Z.Z.1.y y < F.F.",
"F.F.F.O 8 6.S.A.A.A.N.b.b.N.V.l.u.z.N.m.r.z.V.A.A.A.N.p.V.A.A.A.A.A.A.V.t.M.S.A.A.V.z.t.m.N.z.u.l.V.V.l.z.N.A.A.A.S.6.8 O F.F.F.",
"F.F.F.: 3.N.Z.A.A.A.Z.A.Z.A.A.V.l.e.w.w.w.w.z.V.A.A.m.t.N.A.A.A.A.A.A.V.t.M.A.A.V.l.r.r.r.u.t.j.V.A.A.A.A.A.A.A.A.A.N.2.: F.F.F.",
"F.F.F.: 3.p.b.Z.A.A.A.A.A.A.A.A.V.l.w.w.w.r.u.l.V.m.e.u.p.N.A.A.A.A.N.t.u.t.z.V.l.t.w.w.w.w.l.V.A.A.A.A.A.A.A.A.A.m.a.3.: F.F.F.",
"F.F.F.F.f X.l.z.Z.S.A.A.Z.A.A.A.A.z.w.w.w.w.r.u.z.p.r.r.r.l.z.z.z.z.l.w.u.w.t.z.u.w.u.r.w.w.z.A.A.A.Z.A.A.A.S.Z.m.p.X.f F.F.F.F.",
"F.F.F.F.o / a.u.N.V.A.A.A.A.A.A.N.l.u.r.w.w.w.u.r.w.r.w.w.w.w.w.w.w.w.u.u.w.r.w.w.r.w.w.r.r.l.N.A.A.A.A.A.A.Z.M.i.a./ O F.F.F.F.",
"F.F.F.F.+ ( w.w.r.M.A.Z.Z.Z.A.V.t.w.w.w.u.w.r.w.r.r.w.w.r.w.w.w.w.r.w.w.r.w.u.w.w.u.w.u.w.w.r.p.V.A.V.A.A.A.M.i.i.q.( O F.F.F.F.",
"F.F.F.F.F.> J u.u.i.l.l.p.l.l.t.t.>.>.u.w.r.r.r.u.u.r.w.w.u.w.w.w.w.r.w.r.u.r.w.w.w.u.w.r.>.>.i.p.l.l.p.l.p.p.i.i.J : F.F.F.F.F.",
"F.F.F.F.F.F.4 R q.a.i.w.w.i.p.w.7.>.8.r.w.w.r.r.r.7.8.u.r.w.r.r.u.w.r.r.u.8.7.r.r.w.w.r.r.8.>.7.w.i.u.u.w.u.a.q.K 4 F.F.F.F.F.F.",
"F.F.F.F.F.F.F.= _ ] 2.i.i.2.@.8.@.8.u.r.r.w.u.r.r.>.>.9.r.u.r.w.w.w.u.w.9.>.4.r.r.w.w.r.w.r.8.@.8.2.2.i.i.3.] _ = F.F.F.F.F.F.F.",
"F.F.F.F.F.F.F.F.& % f q.q.d 8 ..9.u.r.r.w.r.w.w.r.r.7.O.9.w.w.u.w.w.w.9.O.7.r.r.r.r.w.w.r.r.r.9.| 8 d q.q.f % & F.F.F.F.F.F.F.F.",
"F.F.F.F.F.F.F.F.F.F.> 6 6 > & y 5.p.u.r.w.r.w.w.r.i.8. .O.@.7.u.u.7.O.O. .8.i.i.w.w.w.w.r.r.p.5.y $ : 6 6 > F.F.F.F.F.F.F.F.F.F.",
"F.F.F.F.F.F.F.F.F.F.F.. . F.F.& J 3.a.u.w.r.u.u.t.8.>.| | | O.7.7.O.| |  .@.9.i.u.w.r.u.r.a.3.x & F.F.. . F.F.F.F.F.F.F.F.F.F.F.",
"F.F.F.F.F.F.F.F.F.F.F.F.F.F.F.F.O K 5.u.u.r.w.8.9.@. .| | | |  . .|  .| | | @.q.9.w.r.u.u.5.K O F.F.F.F.F.F.F.F.F.F.F.F.F.F.F.F.",
"F.F.F.F.F.F.F.F.F.F.F.F.F.F.F.F.F.& g w.w.w.8.o...| |  . . .| |  .| | | |  .| .. .8.w.w.q.g & F.F.F.F.F.F.F.F.F.F.F.F.F.F.F.F.F.",
"F.F.F.F.F.F.F.F.F.F.F.F.F.F.F.F.F.F.< y y ` ,.{ w T +. . . .| | |  . . . .+.T w { ,.` y y < F.F.F.F.F.F.F.F.F.F.F.F.F.F.F.F.F.F.",
"F.F.F.F.F.F.F.F.F.F.F.F.F.F.F.F.F.F.F.o - S Q h & w L ! ~ }  . . . .} ~ ! L w $ h Q S - O F.F.F.F.F.F.F.F.F.F.F.F.F.F.F.F.F.F.F.",
"F.F.F.F.F.F.F.F.F.F.F.F.F.F.F.F.F.F.F.& c L e & F.$ 3 F D ^ | } } } ! F F 3 @ F.& e G h & F.F.F.F.F.F.F.F.F.F.F.F.F.F.F.F.F.F.F.",
"F.F.F.F.F.F.F.F.F.F.F.F.F.F.F.F.F.F.F.& A G D r & 7 b M F G G G G G G F M b 7 & r S G c & F.F.F.F.F.F.F.F.F.F.F.F.F.F.F.F.F.F.F.",
"F.F.F.F.F.F.F.F.F.F.F.F.F.F.F.F.F.F.F.F.2 t G D e A W B P E Y F n m Y F B W A e D U t 2 F.F.F.F.F.F.F.F.F.F.F.F.F.F.F.F.F.F.F.F.",
"F.F.F.F.F.F.F.F.F.F.F.F.F.F.F.F.F.F.F.F.o 3 e e e A E N P m V E C Z V E B E A e e e 3 O F.F.F.F.F.F.F.F.F.F.F.F.F.F.F.F.F.F.F.F.",
"F.F.F.F.F.F.F.F.F.F.F.F.F.F.F.F.F.F.F.F.F.O @ @ & e E B P M C C C C C B C E e $ @ O + F.F.F.F.F.F.F.F.F.F.F.F.F.F.F.F.F.F.F.F.F.",
"F.F.F.F.F.F.F.F.F.F.F.F.F.F.F.F.F.F.F.F.F.F.F.$ v b E C N B C C C C C C C Y P v $ F.F.F.F.F.F.F.F.F.F.F.F.F.F.F.F.F.F.F.F.F.F.F.",
"F.F.F.F.F.F.F.F.F.F.F.F.F.F.F.F.F.F.F.F.F.F.; c B V n n C Z Z C C C C C n n V B c ; F.F.F.F.F.F.F.F.F.F.F.F.F.F.F.F.F.F.F.F.F.F.",
"F.F.F.F.F.F.F.F.F.F.F.F.F.F.F.F.F.F.F.F.F.; q Z Z Z M Y B N N C C N N B E M C C C c ; F.F.F.F.F.F.F.F.F.F.F.F.F.F.F.F.F.F.F.F.F.",
"F.F.F.F.F.F.F.F.F.F.F.F.F.F.F.F.F.F.F.F.F.B B C C C C B C E E Z C n E B B C C C C B N F.F.F.F.F.F.F.F.F.F.F.F.F.F.F.F.F.F.F.F.F.",
"F.F.F.F.F.F.F.F.F.F.F.F.F.F.F.F.F.F.F.F.F.Z Z C C C Z C Y W N Z Z N W E C Z C C C Z C F.F.F.F.F.F.F.F.F.F.F.F.F.F.F.F.F.F.F.F.F.",
"F.F.F.F.F.F.F.F.F.F.F.F.F.F.F.F.F.F.F.F.F.F.Z Z Z M W W E N B W W B N E W W M Z Z Z F.F.F.F.F.F.F.F.F.F.F.F.F.F.F.F.F.F.F.F.F.F.",
"F.F.F.F.F.F.F.F.F.F.F.F.F.F.F.F.F.F.F.F.F.F.F.N V Y D F B C [ P P m C B F D Y V N F.F.F.F.F.F.F.F.F.F.F.F.F.F.F.F.F.F.F.F.F.F.F.",
"F.F.F.F.F.F.F.F.F.F.F.F.F.F.F.F.F.F.F.F.F.F.F.F F F.F.P N E E B B Y E B P F.F.F P F.F.F.F.F.F.F.F.F.F.F.F.F.F.F.F.F.F.F.F.F.F.F.",
"F.F.F.F.F.F.F.F.F.F.F.F.F.F.F.F.F.F.F.F.F.F.F.F.F.F.F.P B E I C Z Y Y B P F.F.F.F.F.F.F.F.F.F.F.F.F.F.F.F.F.F.F.F.F.F.F.F.F.F.F.",
"F.F.F.F.F.F.F.F.F.F.F.F.F.F.F.F.F.F.F.F.F.F.F.F.F.F.F.P W W m C C [ W W P F.F.F.F.F.F.F.F.F.F.F.F.F.F.F.F.F.F.F.F.F.F.F.F.F.F.F.",
"F.F.F.F.F.F.F.F.F.F.F.F.F.F.F.F.F.F.F.F.F.F.F.F.F.F.F.F.F [ Z C C Z M D F.F.F.F.F.F.F.F.F.F.F.F.F.F.F.F.F.F.F.F.F.F.F.F.F.F.F.F."
};
